<mxfile host="Electron" agent="Mozilla/5.0 (Windows NT 10.0; Win64; x64) AppleWebKit/537.36 (KHTML, like Gecko) draw.io/26.0.16 Chrome/132.0.6834.196 Electron/34.2.0 Safari/537.36" version="26.0.16">
  <diagram name="Page-1" id="fRTEprp9y4zwBzvZ4gyo">
    <mxGraphModel dx="95" dy="703" grid="1" gridSize="10" guides="1" tooltips="1" connect="1" arrows="1" fold="1" page="1" pageScale="1" pageWidth="1100" pageHeight="850" math="0" shadow="0">
      <root>
        <mxCell id="0" />
        <mxCell id="1" parent="0" />
        <mxCell id="egnDsmeE3gZafAVFNCzx-1" value="" style="shape=image;verticalLabelPosition=bottom;labelBackgroundColor=default;verticalAlign=top;aspect=fixed;imageAspect=0;image=data:image/png,iVBORw0KGgoAAAANSUhEUgAABKYAAAJJCAYAAACQ3D+LAAAAAXNSR0IArs4c6QAAAARnQU1BAACxjwv8YQUAAAAJcEhZcwAADsMAAA7DAcdvqGQAAJsdSURBVHhe7d0LnBTVmfD/Z+SiwQsXMepoHMBGLmIM4yUMGhBJEAg7QlbREKIIE9jlzSIkkA2u8m5wIyqs8GcTXkGIaJTIxYBIZtANImicSdTxAgI6LTAxahK8EMTbCMy/T9Wp7uru6q7q21T39O/7+dRnTlV3dZ0+XdPd9fQ5zylpbmpsFgAAAAAAAKCFHaf/AgAAAAAAAC3KCEyVlg0wVlKV7n6KH/tSX3e0kTfU112x1Jc28ob6uqON3FFfd9TXHW3kDfV1Vyz1pY28ob7uaCN3xVpfhvIBAAAAAADAFwzlAwAAAAAAgC8ITAEAAAAAAMAXBKYAAAAAAADgCwJTAAAAAAAA8AWBKQAAAAAAAPiCwBQAAAAAAAB8QWAKAAAAAAAAviAwBQAAAAAAAF8QmAIAAAAAAIAvCEwBAAAAAADAFwSmAAAAAAAA4AsCUwAAAAAAAPAFgSkAAAAAAAD4wghMlZYNMFZSle5+ih/7Ul93tJE31NddsdSXNvKG+rqjjdxRX3fU1x1t5A31dVcs9aWNvKG+7mgjd8Va35LmpsZmXQYAAAAAAABaDEP5AAAAAAAA4AsCUwAAAAAAAPAFgSkAAAAAAAD4Imc5pj766IgcPXpMrwGF54QT2hgLsuvIkWNy+PARvQYgl3gfAwAAQL7LSWDqtxsa5bpxTxsXoEChOqu0g9Q+O0q+cvaJegsy9cknR+Tqf94iv9/yjt4CIJd4HwMAAEC+y/pQvobgIYJSaBXefucTuerbT+g1ZMOPf/I8QSmgBfE+BgAAgHyX9R5TL7z4nlxS8bheEyk7h19pUVj+8vYncvSo+W9x3HEl8kJdpfT/WhdjHZm55rqn5NH1jXqN9wcgV3gfAwAAQKHIaWDqqmFnyeZNw4wyUCh27PhQvnrRBr0m0qXL8fL7zcO5qMsCe2Dqf2uukm8OLTXKALKL9zEAAAAUCmblA2J0736SLpk++OBzGXpVjbz08gd6CwDkN97HAAAAUCgITAFJtGlTYvz98MMm46Ku/qX3jXUAKBS8jwEAACCfEZgCkjjj9BOMWa0UdVH3zeGbuagDUFB4HwMAAEA+IzAFJNG27XHy9JYRcRd1r+06aKwDQL7jfQwAAAD5zAhMlZYNMFZSle5+ih/7Ul93tFG8wLmnyNbfj5CTT25rrKuLuksq7jLKqaJ9vSmk+tJG3lBfd7k8ptP72N0LdhRNGynU112x1Jc28ob6uiuW+tJG3lBfd7SRu2KtL7PyATEOH/5CTu7ykFEuO+dE2R8ca5TXPrpfxn53q1EeeuWZxgxXSA2z8gEtg/cxAAAAFAqG8gEe9QycoksAUJh4HwMAAEC+ITAFAAAAAAAAXxCYAgAAAAAAgC8ITAEAAAAAAMAXBKYAAAAAAADgCwJTAApacPEGKWl/f/Qy6BUJ6tuRLxplSuzrFFqmbNY3AwAAAChKPgamDsqiQfEXKUmXqeY08wDQqmze5vieR9CmhfE6AAAAAC2usHpMLX/KvFCgN0Tec+zFQmARQAvifQgAAADIf4U5lK+uXnoSnAIAAAAAAChohZtjqq5eblh8UK8AAAAAAACg0ORfYGpAuTQ03STN4WWMLBygb4tRO/MVqdFlAChYwwfb3vMiy9Lh+na0DF4HAAAAoMUVQI+pTjJ9e6Lg1F7ZQFJaAAAAAACAglQgQ/k6yahrOuuyB8FXZGBswtvYxS1HleNjbJBF4Z3sU59vi+65lY3ju06t7nB7gsd0SgDsbZapZDMnxjxnzTpWz5kf6i02VvJ6+5KwHVI/dkavGfKb42xp6b+Gjkmx9ZKNGdhqpjo/tloGOg5BTuP/3e32bLwfuP5P2WTzNcrwPTT99yG3dnbivI+5uD1/5/e5yPHcbgcAAAAKnxGYKi1LMFbORbr7KaVl43Upu4wLwr71UqvXE1IJ1I0v+QkuspIwLzqfkmV63S6bx39I/42V8PjGY5qPZ7w2+uLO6eJsWWXoMRxmpzJfU+tiaL3MqDO3x9srI1X9bReHmZ0P1r6pHfvLHo/p1GbjM6jvs394QZdSk502Sl26+/pfX33RX7lXr9uZ54Fj8MFR5CI/2T7G/0boPs4BpHiRukYef+RyvclB7cz1xn3U/18mbWTx8n5gSOP9IJtKy27TpeSy+R6aW1ZAyvmzwKTfq9II0JnBNef3wdjXy///09RQX2+orzvayB31dUd93dFG3lBfd7SRu2KtrxGYeqcxYQQgqXT3U95pTBR2aWkfyoy+Xi9s1H2TX3SmLvHxnUJ36oIk+fFDjzfxFVnx45+6X9wtfyrul/d3GleHLraSBYViqItDHZzK7HxQ+6oLvdSOfaBsacJeE6bEr9lDGdT38ssu1qXUZN5G6Ul3X1/rawRSkl30pyLFcysF5vNUQanUHz+TNlK8vh/UqCBHGu8H2fRO4+26lG2J30NzJuVzUwWovNdRva6uAVfb6+Xr/2kaqK831NcdbeSO+rqjvu5oI2+orzvayF2x1rdAhvI1ynzHL+k9ZHRWktKGLmzuyW1vgeSyfPy6ehnpsRfJso3246qL6/iLrckb7YmAr5TJentY6HiZz5Do57GRf0Lnw0QPvWY8cT63sim4+OmcBL2yIu33g0LSku/hjTLFS4+uOGaQMJvxs2V3ZPfxAAAAAD8UQGBK9XRIcFFZ1U1G6GKs6ICGbdlVLhX6PlF2HvT4Bb+zLNwV+7iD4+rRYsff2ENvj1exYIzt2A5BHWX5/vAQE6eLa/U8omekKpOlDs/BmiExMG20cbyGBQ45waqutNVHL9svlEDopmwcOzFvrxnyyOZXEgR64l9Lx3PNJnHQyOG8SPL/lNhB2bQuPvAT/f+XyeMnk7v3A79l8h6a7vuQF8HFLyX4PIp+3Ooqvd0uhUB69PNP8HrVHZQGXQQAAAAKVf4FpkJf3M28IdaSqKdD6ILsR2W6HDFiiflFPuH03oEL5TmnizdPX/DVReBomZ7kCia3x1cXKzHHH36h84yFoYuk56Z10itKmcxKegHvdHHdWfo4PddAJ7lAFyM+lNfT/uk+l8d2f82Qf2o2OuWUSue1dA4aqd6W1U0OjzV8sPH/6xhUSOgfstsh8FW75x+6ZKMfP1sBqty9H/gn1++hmUlwPg0ol4Yl0Z9HI5Y4zyZbu67R9UcIp6C88+uVyfsuAAAAkB8KZChfvLgLskScZopyTKScIzk/fifp1U8XXQTOS3Yh6nRxrXK3xNTdWJyChR/K7rQvkPw8NvJPo2xwyptU1T/1AGOwUdY4BI0qFlyYtMecCo5EB3KS6Sh9nIJBttnf4hKpqwBVTCAjO7L1fpBH/H4Pj+IchKy4psyhx1WC2WTTDKAVzOsFAAAApKgAA1Pm0JWEv6aHRE2H7sMFjN/HT0vwoOzQxRbn57FRMCp6d9SlTHWWsSO9Bp28SBCAsAnPxGcsqc/QVmzy9j00wXvVBec5n0/OwaQ0ezkFOjkPYQQAAAAKXAEFpsyAVLPT8JswleQ4lenjs83v42cgdMGVnUTTafDz2Mg/KV78J9VC51Zg2hXOQ+gcqRna7s/pDHiFqxDfQxMMO1YIJgEAAACu8i8wpXJ1qBwscYv70L2aqQmma499zCzld4nl9/Ez4ngBZQUDvS3JerEl5eexkX8c84ilqcUCA51k+nb3ROx2yyrpORWrMN9DkwwlJugOAAAAuCrYHFPxnPPSGDMbpTDjUvr8Pn4u+Jm7ibxRiLbjDW+zmbn7UNZUZ+uxolmzwXkLnuyVDQXZaypX/5sF8B6alaBpZ+lVmB8IAAAAQE60nsBUguE/Lcbv42cqUCZjHYYiLbvjFdcZpMzkxB56f9imc4/SEsdGAXFOJu5lNrM4Cc6t2pmvJD1naqY6JCxPqFGmtN8gi2IrZ83Ap5Zd5Y49t7IXbMuRBIGYnNS7pd5DE70PeeJ8bjq/Vx2URXc45Mca0El66iIAAACAVtVjytmyjY26pAVfkYEtmEzX7+N7l2gGqXrp6XTRrajnkkpy4tBjzbf3EFFBpUHqgq4Fjo0CkuR8mBrz/xQ6h5LnI0qUmFzleXI4t/R5NdJpVsCkIrNIOuaOShDgSStvVh6IC+yp/+Uc/S9m/T004fuQF97PzUTDEp1n8AMAAACKV+sJTCXoGWGfst1Y+tbnJueH38fPgsC0/jJZl6NFLrq9PpdEU5svq7Ttb7u4zOaxUfgCI7s754aK/X/yEKBI6dzKwnkVdY6Hl6dkmb49ooeMzvvcaGUyukoXo5gJ3MPPLxtBqRy8h6b6PuRFwvMppp6Owc0B5fLgtMIMRgIAAAC50op6TCXqGdFS/D5+NpTJ0gRDjlI2vFuCYEAiWTw2Cl/gQnkwhUTiyeXnuTV542AZocv5bERlSyUaz8F7aMrvQ16kez51loW/KtR8gwAAAEDutKqhfCrxcLXjr/vRJlfl5kLL7+NnReBCea5pTApT3ycSunhLdeasrB0brYG3/6fOof8nD8GMvDq3zBknC2YmyeGD3V+HqiuzMlNe9t9D03gf8sI4n65MIejVQ6o9zCwLAAAAFCMjMFValt7VWrr7KaVl43UpdcmOO2JJ4kTDKklxdVPogrBSr+ZA8uOrixPvx39I/03Lqtt0ITVm25pT36ukzW7T3xszZhkJngfLpNjXRSd/Tnqh2a+T0YMg8pqmduwzz1xqHDudnieZnL/P/uEFXUpNZv8zLb+v3/VN+v80oFwaQhf7s3rrdVeRcyvZOVmxYIxxn+c8DrkqLbtOlhr/Ay7nuv7/b7YFKDJpo3Slc0zrdWiv18OM1yB025IyvSGx0jJv70nZfA81nmsK70OpKdOve7IAlfWa57Z3XDb+19KR7r7U1xvq6442ckd93VFfd7SRN9TXHW3krljrW9Lc1Nisy1nxwovvySUVjxvlq4adJZs3DTPKQKE4fPgLObmLGRYsO+dE2R8ca5RffuUD6X/JY0Z56JVnyu83F0qXl/xxzXVPyaPrzSTR/1tzlXxzaKlRBpBdvI8BAACgULT6WfkAAAAAAACQnwhMAQAAAAAAwBcEpgAAAAAAAOALAlMAAAAAAADwBYEpAAAAAAAA+ILAFAAAAAAAAHxBYAoAAAAAAAC+IDAFAAAAAAAAXxCYAgAAAAAAgC8ITAEAAAAAAMAXBKYA+OK1XQd1CQAAAABQrEqamxqbdTkrXnjxPbmk4nGjfNWws2TzpmFGGSgUhw9/ISd3ecgol51zouwPjjXKL7/ygfS/5DGjPPTKM+X3m4cbZXh3zXVPyaPrG/WaSODck+XEE9vqNQDZ8u67n8rfD3xmlLueerwceHecUeZ9DAAAAPnGCEyVlg2Qdxrr9CbvnPbzGphK95hKNuvrVbHUlzbyFpg6/vi35bOPbjXKqSj29r3hpu3y64ff1GsAWkJJicjDDw6W717XIy4wtWv3fxb8+4pX1NddsdSXNvKG+rorlvrSRt5QX3e0kbtirS89poAY9JjKnY8+OiJDr6qR5194T28B0BLatj1OHrz/G9KndyfexwAAAJBXCEwBMQhM5dZnnx2Vna99KNdev1X2Nx42tp3Yoa38+oFBcsnFXY11AJn7+JMjMqnqWflD7d+NdRWc+q+flctP/+MFY533MQAAAOQDAlNADAJTLeMvb38sVwytkTf3fmSsq1xT6v3i8stON9YBZO7jj4/IyMr/le3P/NVYb9OmRI4eNT/2eR8DAABAPmBWPgC+OPusE+XpLSPk3B4nG+vqAnr4qCfl2T/8zVgHkDkV8K3e+C0Z9I0zjHUrKAUAAADkC3pMATHoMdWyYntOKWrI0fHHEzcHskkNo7UHpr5x+emy/amReg0AAADwB4EpIAaBqZb31l8+liHfjA5OAcitSTf1lOVLL9drAAAAgD/yJjBVM/V+Gblcr8SoWDBGnpvWSa8lum8PqW4aLCP0WtjmbVJSuVevaFVXSvOSMr1iOSiLBq2XGbEzHTreV0lwf0OCujhK53Gc94m0k/PtkzfeJEuJpbgiMOUPFZz6wb/8QZ7e9q7eAiAXjh1rDn0+ny1rfzNETjihjd4KAAAA+MPnwFSyoIwDK0jkFGySzrJw12iZHtCrmvcgVqNMaf+ULNNrlvhgTgp1HlAuDdsvlJgqaZk8TuLA1G171icM8BmS1gkKgSkAAAAAAFqGj0lcUgxK2Q3vJpN1MeJDWVN9UJctB+X1nboYZa9s2KyLls3744JSKoA1Oir2oIJXKdS5rl56DnpFgno1IluPE612pktQSlGPNbVRrwAAAAAAAPjHt8BUcPHT6QWlDGUyukoXbWr3/EOXtGCjrElwjB1vRAexgm98qEs2AzpJT100A2nOPaqam6zlyviAWV293LDYfqxsPU4Glr8ki9yiXAAAAAAAADnmU2DqoGxaFx8IUkPRIsEZvWzsoW+N1rN3Z12yWb5fanRRCVbvk1pdjlW7rtHWAylBfa4pCw95cwqkxQ/zK5Olu8qlQq9Zame+Eq5Xth7HmRrOGN1+1Q4BPOfeZQAAAAAAAC3Lp8DUP2S3Q0+muB5PyvDBjgGqwMjucYEbFXB5PRxtcg42hdUdlAZddK5PZxk70kq47vRYnaWPU6KmQCe5QBcjrHpl63GcVSy4Ii7H1oglY2ThAL1iEx2YAwAAAAAAaHk+BaY6Sh+HYIksf0pK2t9vLANjh62pAJV9drxAmYyNe4wPZXc42hITbBrQQyZH3d+WZyp4UHboYtiA7jIqHORxClx9KDP6mnWNXuKH6UXqla3HSUUnGXWNQ++yqMAcAAAAAABAy/MpMJUgWGKjEnlHgjTbHIawOT/Gso06sXdsMvN+3WR0P13WrPs6DfmzD+NzDFylI1uPk6LAecnbGgAAAAAAwA9GYKq0zKn7krt091MG/fdyxyFmzvbKyPb3yxTdw8k6rmPAZedBY4hazca95ro2ubJMJv02ZjY6fd+GPfFD/i44zxrGFxI8mDBXVUqy9Tge+PGa+rGvX/V99g8v6FJqaF9vCqm+tJE31NcdbeSO+rqjvu5oI2+or7tiqS9t5A31dUcbuSvW+pY0NzU263JWvPDie3JJxeNG+aphZ8nmTcOMciLBxRuk58wkuaCi9JDqpsEyQq+JNMqUuCFvKgF4f9nd177d2i/2/k73VWKOE3xFBvatjwkqqX1Hx+V0SipbjyNqZr/1cUnUVfL456bZAmqacxvHtiUshw9/ISd3ecgol51zouwPjjXKL7/ygfS/5DGjPPTKM+X3m6My1gMAAAAAgBT5NJQvIjBtdGQWuQQz8EXY8kIZymR03KxzH8ru6pghcwM6SU+jEJvb6kNZc8/++OF1Vd08BGzSyffkJFuPk5hTj7BImwB5KLhCBrYvk5KEy2yXGSqjBRePcXiM0DJ1q75HIltlinHf1I4HAAAAAPDGp8CU6rm0QRbFBmSsGfjUsqvcYdY9kR1vRCdFH1EZH8xaNjO6V1IkX1R8Xqra5XvjhtepYX9RHBOth45zxyvuM9tt3ha6qNU5srL1OKkIviK3L9dlu36dIjm0gIKzSkZ6CRhtnm0EoHqG3hMcLZ9g3J4oQFUzdUJMb0oAAAAAQDb52GMqMhudlTsqSqCTXKCLdlG5n5Th3WSyLjrrLGNHRvYJjOzuGPCK6Cx94iI2iWa2q5eeTgE2RQ3bU4nbK+25rrL1OB45Dh00xQXfgLw0TqqbGqU5atlmy0+nAlRjnP93VFCqcpVeKZeFu2IfZ6Xze4cOZqllpFNQFwAAAACQNb4P5VOWVVqz79mX2LxPSg8ZHZfWJ3Z4XqzO0sseaEoQ8Aob0F1GOXQlCkzrnyAAFgmwRS0JAkLZehwn0TMZJtl3QLnMIj0SClY3mb7dHliqlxkTV8T0OtwqU6yg1IA50tC03iGP2xBZqgJUu+a4BKsBAAAAALmSF4EpryZvdErWnaAXkiUuX5RTXqqIyLC/WGWyNMHwwtRk63HS1UOqt1/IMD60AkNC/0s6qFQ3V25YvN/YqgQXL9aB7XGh831S8vM9MEmeWzJEr4QMnxfpVbVxnN4IAAAAAMiFAglMqZnrbpKlCXr5JBue5zRkzSkvlSl62F+cwIXyXNMY2zCiNGXrcVLGTHxoZQKT5DYdaK5dt0X3mtovm9aZOaUqFkzhfAcAAACAPOZTYKpMluok59VJei+ZgRR1v9EOw3BsEiQVd84XFRLo5BzISjCML1onmb7drHvDgiQ9tUImb9SJ3B2DQdl6nIiKBWMSJo03H4OgFFqfEZW6V1NdUBqMwj7ZXWcU5ILzupkFAAAAAEBeKmluamzW5ax44cX35JKKx43yVcPOks2bhhllZNNBWTRovczQF98WFZh6blqSHl/w5PDhL+TkLg8Z5bJzTpT9wbFG+eVXPpD+lzxmlIdeeab8fjOJunImuEIG9p0rtUby83nJA6rh+6oE5+tlusSsZzJuNZxA3UM9AAAAAAApK6gcUwAQJ9Aj+YQGAAAAAIC8RWAKQGEL7pUduggAAAAAKCwEpgAUtmBQao1Cb+mlhu2Fe1DVy24zGzoAAAAAIE8RmAJQ0IJv7DELAwLS0yh0lz56MoQdb+w3CwAAAACAvERgCkDhCq6QG2bWG8XJt0wSM895Nxl1TblRqp25VGqMEgAAAAAgHxmBqdIy3b0gRenup/ixb+upbyeZvv0maW6KXuwz8tFG7jLZ99k/vKBLqaF9vSkdvEiXktkqU4zZ90IGzJFZwyPHDEybJpON0ioZOWiFJB3Rp2b1m7q18NqI+roqlvrSRt5QX3fFUl/ayBvq665Y6ksbeUN93dFG7oq1viXNTY3NupwVL7z4nlxS8bhRvmrYWbJ50zCjDBSKw4e/kJO7PGSUy845UfYHxxrll1/5QPpf8phRHnrlmfL7zcONMnJABYuMoNM4qW6aJyP0ZkvN1DIZuVyvJLiPbJ4tJZWr9Eq5LNy1XqabXaq0rTKl/QRZpopVK6V5yRBja5TwYyQ4BgAAAAAgIwzlA5DHVsnI9mVSErO4BqWU4fOkeeM4vVIvM/rGPo4OSsVSwSjrPuHAlq0ebj2wAAAAAACeEZgCUIBUQKpRmt16MangVOh+DQvMnFOxKhZsM2537C0FAAAAAMi5nA7lY7gTChFD+QAAAAAAaBk5DUwdd1yJ/OahK+Scr5xorAOF4P0PPpdRV/+vUVbnbuObBKYAAAAAAMiFnAamgEL3pS+1kQ//Pl6OP/44AlMAAAAAAGRZ1nNMde92Mj2k0Gp8+ulR+efrtsjnnx/TWwAAAAAAQLZkvceU8vY7n8j3b9wuzz73N/niC/OC/vjj28ill5wmHTq0MdaBfPbWWx/L7j0HpVn/d3x75Nky5z/6y9cvI38aAAAAAADZkpPAlOWVVz+UK4fVyAcffG6sl57ZQZ7eMkJ6Bk4x1oF8du+yPfJ/ptXJsWPmv8g3Lj9dnnn2b0aZwBQAAAAAAJnL+lA+uwu/2lmeenKEnHrq8cb6O+9+IlcMrZGG4CFjHchn/zK5t/xy8QAjib9iBaUAAAAAAEB25LTHlEX1nBp6VY28/77Zc0qZc+vX6DmFgvDU1ndl5YMN4WF9ypArzpSnnqTHFAAAAAAAmWiRwJTiFJwCCtXgQWfI078fodcAAAAAAEA6cjqUz84c1jc8PKwPKGSTq3rpEgAAAAAASJfRY6q0bIC801inN3mXzn6Nf/5YVtz/uvz3woflphuv0VtTc/8D69LaN939FD/2LZZjKoVS32PHRK4ccqZMm3F9i/3PWPzYl/q6o428ob7uaCN31Ncd9XVHG3lDfd0VS31pI2+orzvayF2x1rfFhvIBAAAAAAAAdi02lA8AAAAAAACwIzAFAAAAAAAAXxCYAgAAAAAAgC8ITAEAAAAAAMAXBKYAAAAAAADgCwJTAAAAAAAA8AWBKQAAAAAAAPiCwBQAAAAAAAB8kQeBqa0ypX2ZlMQtY2RRUN8lJLh4jLl96la9JV7NVL3voBVi2zWK9TgDF+/XW2JZ9ZktNXoLAAAAAAAAss/XwJQZJJogy/R6tHqZ0TcSZAqc19vcvPzJBAGjrbJhuS7WBaVBF2M17Kk3/l5wXjfjb6yaqYnqAwAAAAAAgGzyLzC1ebb0nGkGiaRqpTQ3NUYt1VXmTWHDh8lko7BHXnfqDhXcKzt0UWSVbNisi1Gs4NU4GT3c2GAK1cXqqTXSCm4BAAAAAAAgp3wKTO2XRXesMosqKLVkiFm2GbFEBahW6mCU0l36DFB/62VNdfwwvGD1JqkN/Z1cNc5Y3/GGw1A9K3g1ICA9jQ0AAAAAAADwi0+BqX2yu84sTa6MD0pFDJGl2ydJwCh3k1HXlBul2j37jL925hC9cTL6RwGpCJVq122JyzNlBa8qrhmqH1MbPi/SW2ujGdgCAAAAAABAbhmBqdIyoytSytLdT/V+eqS9WXLs2ZRAOM/Ug9Nigk775fWdoT+qJ1RgqIxV1XLIM/X1OcnzSyWT/nP1o30L65gK9XVHfd3RRu6orzeFVF/ayBvq665Y6ksbeUN93RVLfWkjb6ivO9rIXbHWt6S5qbFZl1uUmkHPyuc0eWOjLLXnfEpIzZinkpOXy8Jd62W61e0puEIG9p0rtXpYoPnYMfdRwwcHDZYZdeOkummejNBb46h8U5VqmKHL/QAAAAAAAJAR35Kfj1gSyR+1rNJMPK6WgYuT9aCK5Jnabe8yFQya+aX0sMARlWo4XkwuquAWWaOGD5JfCgAAAAAAIC/4Nyufyh/lMPte7czBSYJUkTxTyzZuNf4qNRtVD6dy6WP1jgroPFP2XFQ6eBWXXwoAAAAAAAC+8DEwZTJn3zOXhgVm0MliBKmmRgJQSjjP1M69Os+UlV9qlIwKB6Z0nqnlT0qNuUUHr9LLLwUAAAAAAIDs8z0wZReYtj4cpAr3pFq+WBbZh+0NH2YOAazbJJvUdmuIXr8etp5Q3aRXP/V3j7xu7KuDV2rWPk+5rAAAAAAAAJBreRWYsovkoIrJJxWbZyomv5QlKs8U+aUAAAAAAADyTt4GpiIBqFjReabi8ktZ7HmmyC8FAAAAAACQd/wJTAVXyMCY3FFxrF5ODkGnSJ6pJ2WDMUSvt/SKC0xF8kwtemOPsYn8UgAAAAAAAPnDvx5TyyeYs+85BahU4KrvXKOXk1RNk+mxQadwnqlVskwFr6qGyQi1HsXKM7VKZsysD/0lvxQAAAAAAEA+8X8onxWgsi9WUGrAHGlYEp07yjRERlvJ0UMqenfXpWhmniktWX6pzbMjx640Z+9TAa2R1rZBK/QMgAAAAAAAAMgWfwJTgUnynJp9b9ccIw+Uk8kbQ7dvn5QwJ1TP3maeKTXUb+zIBEP0rJ5VIeSXAgAAAAAAyC8lzU2NzboMAAAAAAAAtJg8npUPAAAAAAAArZkRmCotU9PXpS7d/RQ/9qW+7mgjb6ivu2KpL23kDfV1Rxu5o77uqK872sgb6uuuWOpLG3lDfd3RRu6Ktb4M5QMAAAAAAIAvGMoHAAAAAAAAXxCYAgAAAAAAgC8ITAEAAAAAAMAXBKYAAAAAAADgCwJTAAAAAAAA8EUeBKa2ypT2ZVISt4yRRUF9F61mqr5t0AqJuSk/BVfIwLjnZV9mS42+qxfBxWMcHiO0TN2q75GM1c6pHRMAAAAAACBXfA1MmYGWCbJMr0erlxl9ywonCJWWVTLSS7Bo82wjANVzZr3eEGP5BNcAVc3URO0MAAAAAADgD/8CU5tnRwItVSuluakxaqmuMm+yG7FE3759kgT0tsIwTqpjnl9z0zZZOEDfbASo4nuIGVRQqnKVXimXhbtiH2elTNa3xtEBLbWMXK63AQAAAAAA5AmfAlP7ZdEdOtiiglJLhphlGzMIlSToUvC6yfTt9udYLzMmxvYO2ypTrKDUgDnS0LRepsdF5IbIUhWg2jVHKvQWAAAAAACAQuBTYGqf7K4zS5Mr44NSEUNkqa13VDjHUsyQtejt+2XRILOXkLnYh8klu80voedoBZXq5soNi/cbW5Xg4sV6+N04qXbrJRaYJM/FBviGz4v0rNo4Tm8EAAAAAADIDz4FprpLHz2MbccbkUBMxnYuloHtB8sMHfQyrZKRKk+VkYg8wW16zTeBSXKbHrpYu26Lrs9+2bTOHOpYsWCKjDBKAAAAAAAArYdPgalu0qufWaqdOVimbDbLGaurl1p7PidbT6SefedKrTEcLv62+Y7Hj+1d5WHxNDuesxGVukdTXVAajEKkV9kF53UzCwAAAAAAAK2Ib8nPRyyJ5I9aVhkJ7gy0DWVLmZFEfV6kd5GtJ5Jxm304nO22rPbaSlcgoHNE7ZHXVZep4F7ZYayXS5/CyvQOAAAAAADgiRGYKi0LTw+XknT3U0rLZhtJu2Nn31M9qFyDVKt+pAvuevYu16X4+lq31e7ZZ/yNZiUnN5czzzwzXE64OCRxN23Qf5MI9JALdNHyov6bDn9e05bfl/p6Q33d0UbuqK872sgd9fWG+rqjjdxRX3fU1x1t5A31dUcbuSvW+pY0NzU267LvVBLznjPNvEphtln7wrfHzOSXaLuS7m1ZofJaqSGExvBCW08uJ+H7lsvCXetlusSsZ9pravNsKTFm+PNQFwAAAAAAgBbg21A+J4Fp68O9j8I9qZYvlkW+ZydvAcGg1BqF3tJLBaHCPajqZXcxPH8AAAAAAFB08iowZRfJQeVXYKZlk58H39hjFgYEpKdRyNHMhQAAAAAAAHkibwNT9sBMqxdcITfoIYyTb7EStHeTUdfoHFgzl0qNUQIAAAAAAGg9/AlMqXxKbr2LgltkTZ0q+DUrXXTyc09LWnmqtsoUI5dUyIA5Mmu4sdEQmDZN9xpbJSMHrZCkHce8tCkAAAAAAEAe8a/H1PIJiYe/hROBh1RNyzzxd56qmaqGAE6QZcbaOKnebvWWsgyRpRvHmcW6udKz/RiHfFtbZYpqR6u9AAAAAAAACoT/Q/msAJV9sfUgasjFbHktbpWMjH2OoWXkcn1zspnyhs+TZis4JfUyo2/s41iBLQdqJj7rfsaMfIqtLm69sAAAAAAAAHLIn8BUYJI8p4a+7ZojFXpTrMkbQ7fH9SBqbVRASg0DTBCUsqjgVOh+DQvMnFOxKhZsy2AoIQAAAAAAgD9Kmpsam3UZAAAAAAAAaDF5PCsfAAAAAAAAWjMCUwAAAAAAAPAFgSkAAAAAAAD4ghxTAAAAAIAWt/O11+X1N/Ya5fL+/aR7t68YZQDFhcAUAAAA0Eo8+9zz8rvqp6R3r3P1FiB/rX30d8b5qtx041gZPOjrRhlA/vvjn16SO38+W0455SS9JX1GYKq0bIC801inN3mX7n6KH/tSX3e0kTfU112x1Jc28ob6uqON3FFfd9TXXWtvo5/P+x9Zfv9qGfyNr8uadb+Tsdd8W9+SmnT39eOYCvV1l4/HrH9pp+zYuccoD6y4SHoGuhtlpZDaSKG+7mgjd4VU30fWPC4dO3aUv/3leb0lNfbPN3pMAQAAAK3E6rWPy/oNT8gjD/9CbwHy1+xb75I7715ilO+79y6pmni9UQaQ/04r7S+7X90iXbt20VvSR/JzAAAAAAAA+ILAlM+Ci8dISfsyKZm6VW8BAAAAAAAoDi0fmAqukIEqEJPiMmWz3r9I1EzVz33QCgnqbQAAAAAAAK0JPaYAAAAAAADgi5YPTAUmyXNNjdIcszQsKDdvr1oZd5talg43by4WI5bo5759kgT0NgAAAAAAgNaEHlMAAAAAAADwRQEEpvbLokEueaY2z47Px2Rt00nFw0nGrSVp7qatMsV+X9f7Z1+ipOix22Of18DF+43tAAAAAIDWJnJ9nMo1qpXDOJ+uF3NfJ1tbtZ8tNXor8k8BBKa6yfRbxhmlZRudZ66r2bjK+Dv5FodhbzsXG8nWe86s1xu0urnS0+HkNAM9E2SZXg8z7j9GFuVNJvInjeBZ7POqnTmYGf4AAACQh6wff7lARKHz71yumTpYZtSFCgPmSEOGaV+yNeFW/k7c1U2mb2+U6ipVXiUjuU7OW4UxlG/4MJms/i5/0uEff6tsWK7+jpPRTnmo6uqlVspl4S5bzqpdc6TCuDHm5Nw8OxzombzRdv/QYp7M9TJjovXPZo++elyy+Y+wfJUsi31eG80AnixfnEcBNAAAAEBdvDr8+AsUIN/O5dD16kh97VtNLmLPRixZqeMJE4putv9CUSA5pobIaB3l3BB7Im1+0nxTqBomI4wNMYxk6utluv2/ViVgDwdxrGDXfll0h+55tTE+2Xr4ZK7bJJvyIejj9LyGT5GFA1ShXnYTmAIAAIDfrPQaocW8oAYKlO/nsv16dZ7ztW+KsjXhVv5P3DVElurr/2V35FuvLigFk/x8RKXzcL7wML7KIcZfz6xeWLJHXldnZnCLrNFdImc5zgBoBcesoI/ZLTDcW8nLsiTFOqasm/TqZ5Z2vEGuKQAAAABoFTYvDQ/hc75eRVJWJ466uTKfXlN5p6S5qbFZl32lcjsZw+hUTyDHAI4ax6u6TI6T6iYrQuy0TVMR7cpVSR5PDcUzx+caPaRE398Dpx5V6Ur0vFPdblHje1UEv2LBNnluWje9FWg5Z3dbLceOibRpWyIXl3fVWwFk23vvfSZv7v3IKI8YfpasWHa5UQZQ3FavfVzWb3hCHnn4F3qLg+AKGdh3rtTqVYv1HTfZ903rNqfvmsluM1jfz52+u3sUewzru69zvh3rWsHG6X4u7ZESD4+V/fb1+DzDPN4/5noqXG9L0mN4M/vWu+TOu5cY5fvuvUuqJl5vlD3x6zxW0j6XI22f8PwKP6/ox/Z+nefw+obaoFomxO0f30bp1S9ZW5u81ynC/TyNfa2Svx+EWK9bFs5diJxW2l92v7pFunbtorekzwhMlZYNkHcaVfg1Nenup8Tu634yR/4ZO3Q5Uz7+a2jfZMEnh9uij9lygalk7ZToeae63WK1UftTTpPP33tBb/Uum69pKtLdl/p605L1LWl/vy4BaCnl/U+VF/9Yqde8K5T3FQv1dUd93bX2NrIHphz3DV9QO1H5S9fL9GCii7fI92enCzvre2jC78ouF/NenmvkQnSOXDBzbuSitf0p0nB4R9wFqzP9PEN3Lj2jj7z7wSd6e6zI/ZzE1ddL26rHsu6Xhfb1+jwVVd/tPz7T8/3D9WzfXiqamuICQKbkgRm31zRZYCrpvknbun3oeTSkdR6rY6749rvJz2PF4Vx2e66WcPBEX8/F7ud8vWcFaeJfU8d9k7CCOGrf8PlgO1Zs/WJ9uWtPOXCoKep25zqbUqmTxet5bd0v7v3A9rpGt5FzOybi9TWNle5+ih/7prufCky1adNO/vrWn/SW1NiPawzlS/eJp7ufks6+1nC+T74zz/hrDuMLnVQ/iv+HcRJ9zH2y26kK6iR2GoZnW8w3KPWGZktsnmR59913zXILzgJw0Zx1upSaln5NLenuS3298aO+APJfob2vUF931NddcbdR6KJMX8yrC8Ho77g6n6oSCJgTBdUFpcHYYLF9f47Lu2pNSFQufVwu9hJJ5bnWqotQ+/d2W1BKBQ2si1oVXLA/z+gJjbbKP+mgVNL2SCC6vh7bVslW+3p+nqZ3lg5J6f5hRlBKXcjb9kk0mVSM7J6/Fre21rlN0mjndxrnpX0ee32u1jWtles4er/9smmdfo3sqWqsvMoDRskoW72i9g2ukBv06+vlfE5U39j6Rdsvt/RtMkqeUumkWCdDiue1Evd+YAs2Rj/P2PQ8yXl9TWOlu5/ix76ZHHPnS+mPi7Qft4CG8ilWhFNFpofJBlWOiXKHWVHsRI8X7oKoo6Xi3GUyMVuk3atkEeSY21LdbrEi3OofP747JJB7bb+0Uo4ebZYTT2wrNY8P01sBZNvmJ9+WO+58xShPnNCToXwADEmH8iUYIhQv8j03qteI/n49uWqcLFu+Kvr7pvXYib6bK9b3c8/ft+NFekgk+q6boO5hth4TNaNkzYhUvv8n4bltlWy0bwrP0+gZkur9Q5vcrqey8HqmNZTP7/NYyei5W23t8FokOH4q530q14nO15bp1y/6cdKpU2rn6ahqt3aJ596W8CrrQ/l02VfOJ3M86+R1fCOxc3kjDR/P4c29JU/SRM871e0WAlPwW7sOD8iRI8ekY8d2cvDAeL0VQLY9+FBQbpz4jFGecfP5cs/8S40ygOLmLTBlCz4k4PSd0tymLsQdfiB2C2IoWQhkWN+FE37X9RBYCF9PLJ0jO6Z4aw9XKbStknH7pvI81QV+IMX7q4CA62vqEMxKUWaBKZ/OYyXDc9ntWi/2/HZ6HlE8tInTY6R6zZmofo73T6dOKZ7Xs95wrk9SXl9juMpmYKpgZuWzhGfnW67eCMpl7EiXE3D5YlkU000v/I8TMvkW64TvJtNvMR+7duZg52F36h+l/Zi4xwMAAADyXmCojFWzUqmhMH3NlBMDFzvP5Gx9567ds8/4q4IQxhCnAQHpaQ2HsQ2RSnum7GwLBkMXwiF1c6WnLbWGfVEXtYYzvbeHGYSJfyy1TFEjWVJoWyXj9k3leSqp3t+T7tJHP2cvw6KyphWcx4GRo8xhhlHD5axhfImvcS84L8G1r/X6Sm/p5RTNSVG69YuSTp1ycp6iEBRcYCo8zaMSM8bWWeQNy1qsoJSKrEZ1Dxw+TxoWlJvl5ROi9jEWI+ILAAAAFKJuMn17dF4X4wdZ/V3XCLBYrPw81oVpcK/sCP2puGao8aOuecG/SjYY++yX13eqv+nnl/JHCu3hKsXHKor2zZVWcB6Hg2vWsUOCW2SNGvbm6Ro3ASPglgXZrF+26pQt1jmxc298PjX4pvACU6E3olHXmMEj6w0lqaqVkWBTmOpO2OjY3S8wbX3iRGyqS2FTet1UAQAAAP8NkaXhZMLR33mXVdpGBoQvTPfI66FtwepNoobkhHtK6Iu7ZRvVKAOdTDqTC+psM763W8/TeTF/oPbYHlH3i14iP3R7fayQbLWv5+eppXr/pGxJxFtcoZ/HkWta89hW3Txe4+acz/XL6nkaw+qV1a9HHrQzLHkTmDIDQqGTzHWc51aZb/R4Gie3eRxHGn7s8OIWXErwwZNgnGsmEj3vVLdbRiwx6+p5jC0AAACKlPWdd5sekVAva6qtIVHdpJcxuZkapqWH8Ngv2K0LftUTRfdCyYsLPas3RNxMbF4ka49UuT1Whu2b6vPMqF0SsOrVEj2MkirM8zh6uJx1jetxmFysHLy+GdcvnTrl4jxFQSi8HlPWVJlVw9JKmAgAAADAzrp4j2bl51l2xwxjCE90TwmrR8UquX2i2ZPC9/xSSriHTKheSXI8JefcHulJ/FgZtW+qzzMr7RLN6kHTMj2MvCiw8zgwSW5TOa5Cx94w1brGnebYgaJnb7P30o43Erx2gR5ygVGwDb3LVAr1c5ROnXJwnsYKvrHH+FvRu7vxF/mhwAJT+2XRHXmSWBEAAAAoJGo2qvazzVw7dsEVcrtOKByVXDnce6E+dMEe31PC6lFRG7o9u71m1GzZZr6gkkErUswDk8KERven2B7JpNq2Skbtm8LzNBow1fvbeJ5MqoW0ovM4HDQzJvZKfI0bOK+38bd23ZYE/w9DZJZOXxM3bFTMxP3pJA33Wj9n6dQpg/PUo4Y95nnr+X8bLaKwAlNWwjUZJ6PTHVMKAAAAFK1VMlJdKNsXa4KfqpXReVvCvRcUh5m17Lcn6jVjBBH0cYzp9RVbHVIOPHmQ0oRGKbSHqxQfK9P2TXXiprQnekphMqkW08LnsZKLc3n4MFt+rCTXuNb96jbJpgQHCUxbGB7KGP16TZBlUi4V4TZIgdf6JZBWnXI6IZmelTGrAUhkQ0EFpmrusd5sGMYHAAAApCR0wde8a47ZeyTG5I2NDjlMbUOjHL9/RxIk51siYTMvq8uERjel2h5JpNy2Subt6+l52nZM9f6GFCeTyrlWdR4PkdHGcLmQpNe41v2S5T1TsxU2SrX1eJbQ66dyLN+WYEhpcl7rl0h6dUrrPPXCSguUN8NPYSlpbmps1mUAyFi7Dg/IkSPHpGPHdnLwwHi9FUC2PfhQUG6c+IxRnnHz+XLP/EuNMoDitnrt47J+wxPyyMO/0FuANKkeQqpnkAoipBKkS8HsW++SO+9eYpTvu/cuqZp4vVGGA+v1UIGZHEzK1fqpoZWDZUadGcD0p6df63JaaX/Z/eoW6dq1i96SvsJLfg4AAAAAQDEZPsUcFlc3V+ZnK8F5Mdm81AhKqcDeLIJSeYfAFAAAAAAAeS2SGHxZpUPydySxVabovGAtnqwfnhiBqdKydDKhpb+f4se+1NcdbeQN9XV36NBhXUpdIbWvH8dUqK+7Yqpvuoqpjaivu2KpL23kDfV1VzT1XfUjXUhd0bRRSIvUd/g8na9plYwctEK+nO/1jeHXMWumqmTrIbGJ8V0UUhspftS3X//0u5/Zj+tfjik1zWOSjPqM+0yRNeY4Ae/tqabuVP+446S6aV4aCe5Q7MgxBbQMckwBcEKOKWQNOabyVCRXEvmm3NjaiuvbrCuKHFPLKtV0kHRRzBajPT1MYRqOJgMAAAAoXmr2u6YUZydECzBnujNeG4JSLmxtRVAqr+VBjymHyKW99w9RYG+SzNIQXDxGes6sN8oVC7bFT+vq2NuKiDLSQ48poGXQYwpArJdefk3+bfoceesv78plFRfrrUD+euXVXbJrd4NRvvSSr8m5PcqMMoD899sNNfLtEVfKql//jxx/fHu9NT35GZhSbEP9GNbnQZLAlBIOTjndTmAKWURgCmgZBKYAxPpd9VMyavRNeg0AgNw7/OFuOfHEDnotPfk7K19gqIzVubB2vLHfLBj5j9QQv/hl4GLrPhEqGGO/rWaqvn/UkDbvj2k9XsnUraE1NV7Vfn/7sMNkt/kjcF5vs1AXFPM3CRurm65aNpozPQAAAAAAAORa/vaYsiUqCw8/c+zZYxPTG8jqJVSxYI5cMHNuJHeS/X4pPGak11G5VNTVxyduV/f9lcgNTkndnXoqZVMmPabswu1Bjymkhx5TQMugxxSAWO+994EsWrxCnn3uBfmPn/5QbwXy169WrpZH1jxulGfcXCUjrrrCKAPIf9d+919l+dK7ZczVV0mbNm301vTkcWDKmh3ONpRPBU02DnNIwOdw35BwMEZJFJBJ4TGjHs9eb9uwQ4P9WK5DEu0zBXjkNDNG0sCU7Rhus2oQmEKGCEwBLYPAFAAnzMqHQsKsfEDhKopZ+WTzk7qHU7n0saIsasiZY1BliMxaUG6Ulm1Uw+yiqR5XCWcsSOcxVXDHHrQJTJLbqnRZ3WY/lu22yJDEllUz1Qp8lcvCHyUJSgEAAAAAALSgvAxMqZ5J4eF1VdNkukNEKZwvSi+Rnkzpy+Qxe/Y2g1hOrNtq9+wz/kazT2HpcUnW46lurvS0PQe1jFyubiiXhbvWO7YlAAAAAACAH/IgMLVKRsYEUsIBobhhZ5Gk4mawJRty8Zh5xujhRVAKAAAAAADklzwdyqfyG8X2DIrJxaRyKdl6ETXoYXepycVj+sz+HKwZ9pZPkCmbzSIAAAAAAEC+yIPAlA5CRS0OSbeDW2SNDiCpJOIJc0alIhePmbJIjy3Py9T4PFqOhs8LB9eWVY6RRUGjCAAocFd9+0mZ+e/P6zU1q1GDnNtrnTHxAAAAAFBI8jf5eaxg0Jz1bsAcmRU3s12acvGYeSYwbaEsHKBK9TKj72ypMbYCAArZ229/LAcOfKbXRP7xjybZu+8jaW4u0VsAIBNqdmr1g2iWvzuq2Z9jf3DNxXFQHNTs507nk9cf8eN47DCQ9uMDSKRwAlOWuqA06GLW5OIxPcty8vM46vFXymSjvEpG8kYKAACAJGqmTtCzY2dP1ORGccycswMX+zODNQqQCnL2nWt2Moi1fIKUtGe0CFBIjMBUaZnRpSZl6e6nlA5epEseDR8WDq6M7nqxUTKZkW0vM+jF1df2mLdHfRDGP2Ymz3Xg3J26lJqM2jdq3yGy1JZvKtmHfumEDbqUuuzV1zs/jqlQX3eHDh3WpdQVUvv6cUyF+rorpvqmq5jaiPq6K5b60kYJ2HozZTIhUPJjOqXw2KZ794vUzhyRds+pvG/fGIVU3/xtI4fzadccaW/cVi8zJq6QVGNT/1df/hlpXmIf21oSdBJofe3rrFiOqVBfd/36pz/0zH5cIzD1TqOV/Ts16e6nvLNtui55NURm6XxJTYcORLpStlfJy8tlcpV7ovL4+kYes3bm4KSPmclzfW5OP11KTUbtG7uvLd+Ueq5RydBtX0Te/eATvdE2W+Igb2/qWa2vR34cU6G+7k455SRdSl0hta8fx1Sor7tiqm+6iqmNqK+7YqkvbZRbiY4ZmLY+dFHvkEc2qnf/J7IhzQl7Cq19C6m+edlGoWsbx/MpMEk+t36Qr9skm1KMTP3M/ZIyoVbVvkkUyzEV6utu50vpz7JmP25BDeUzPtCsNxqLMQvdepnVW6+nKBePma8i+aZIhg4AhaxNm+OkzXGRfFLHhcpt2xbe6HwAecS40Nc9QmK/G7uyclLZFo8/bJq6S5/0f7AHogUCUqGLAApDSejDp1mXASBj7To8YMwM1rFjOzl4YLzeCiDbHnwoKDdOfMYoz7j5fLln/qVGGUBxW732cVm/4Ql55OFf6C1pUL3pjXxQaqiUUy+nCJU7KnFKjXJZuGu9THeb9lolsTbyBbkfD63L7FvvkjvvXmKU77v3LqmaeL1Rzkj4fPJ4/oWpdC5q5Iw5lG9pK50cC8iW00r7y+5Xt0jXrl30lvTx8yoAAACA1G2eHQ5Kxebkqa5SWz3k+QkHEdRjEJRC5oLVm3RS9N7Sy3NQKtqyypgegMwcCeQUgSkAAAAAKdovi+4wZ9lz6l0yYonOG+WU58eW39SYWc1Io0EPFWTDVpmvg6UVC6ZkMdDJzJFALhGYAgAAAJCa4BZZo/LWDpgjsxwDSkNktO41tdst2VTdXOmZUk4qwFnN1AmyTBVC5+WD07oZ27xTifije/6Zi5WcX00iNYM8vUAOEJgCAAAAkJpg0BwupYJK4eFO0cvI5cY949kTrTdtMyfnMR6H4VJIn8p3Zp5z5bLwV5MkzVF8DobI0nBwql7WVNNrCsg2AlMAAAAAfKJ6qejglKyS2xkqhTREkvCnmvDcK6sHoEjtnn1mAUDWEJgCAAAAkB6dHyp66FP04p47qpv06meWuOhHqnIflAKQawSmAAAAAKQmEJAK9bcuKA3GBqDlEZQCWgcCUwVIvQEbY/enbtVbAAAAgBYUGCpjszX8LrhCbtf5qCp6dzcLgItIUGqcVDflOChlO0cnVw4xCwCyJg8CU1tlSkyiRHMZEz/jQegNYaC6raVm7Wjp4xms9iD5IwDAZ/Yp3R2WKZv1/Vzx2Qa0Pt1k+i3jjFLtzMHOP5ga36XVd/r9smhQ6D0g0X36zjUTqcs4uS3lmdRQjGqmltmCUvNkhLnZhT4P1eeRw/WdekzHzyn7OZpwFkoAmfA1MGX2/NFTesaplxl9nd80WrPwFKcAAOS5ZZXePqf5bAMKgD0QXblKb1wlI61tTv/rw+dJw4Jys7x8QmR/awkHnLSk91FDsbwGGFDc9svrO3XRfo46LSlfSzo8ni1wWr09m7P9AbAYganSMqMfbsrS3U8pPaOPjnKHVK2MS5JYrWc9cFS/SBdSk0l9B2byXN32tX0RsE+rOz6Xx0wgo9eU+roqpvoeOnRYl1JXSO3rxzEV6uuumOqbLs/HdEhufNop7c3b6ubKDU7DePLos00ptNeU+rqjjdxlsq9XgWnrQ+8J1lT6MYz3DjXESs28l+T7vXEtsF7uHlo87VtI9S20NkrXiCWN0qWDXolRsWBb6BxNHjgtlvYtlmMq1Nddv/7pdyG0H7ck9OWyWZdbkOpGOVhm1IWK6oNoSaJxultlyqC9MsuKTFvdKNWHXEtEq1vqeOrLe/iXKUvibqnh8dRJ2w7wR7sOD8iRI8ekY8d2cvDAeL0VQLY9+FBQbpz4jFGecfP5cs/8S41yVlmfTwk+B8OfR063p/jZBiA7Vq99XNZveEIeefgXeguQv2bfepfcefcSo3zfvXdJ1cTrjTKA/HdaaX/Z/eoW6dq1i96SPp+G8u2T3SooFZI8edwQWaq/6Bpjfq1ulHVzpaf+FdZcrLHAifJVlcnAmF9zrQTi1nZzTHFo0d09vR0vS4bPC/8C3bzRHKufHtu4afJ4AECrduRI5HelXbsPyuefH9NrLSdwXm+z4DQrV9Y+2wAAANCa+RSY6i59dK+tHW9kOIuH3eYnE+awMJIyOo4x3mIEs+zDDAqTrRea0W2aX6QBoDWrf+k9XRJ54sm35ZxzV8ucn9XLO+9+orfmXvCNPWZhQEB6miUAAAAgJT4FprpJr35mSQWMvMzqo8b8Nu+aIxVqxQi86F9hjcUWhHHIVxUe9143V+bHHKt25lxZZn883UPL/Xj23kkeF6eZSLKkZqotKJXLYYcAgLzQ67xOumT6+98/k9t//oqUnbtWvjt+m9TWHZDmnA7W3y+b1ulckf168LkDAACAtPg2K9+IJZEkicasPjp4EzvkLiVq2IBjzqUhMkvPGLJsY3RwyEhkV+CBHDUs0ejxRVAKAIrGDyadJ/veuFb+++5Lpd/5kbH9KsfbI2v2ysBBm+SSio1GLqpcDPML/yCiZtL6EfkOAQAAkB7fAlNG/qim+Nk5jCF3WQhShXNG6SU8A2DWmLOLRHpReVhykKg8nHiW6UsBoKiccEIb6dbtJPnR9PPl1fqr5enfj5DvjC6T444r0fcQebH+fSNB+pnnPCLfvvp/5eDBJn1LiuJyLVpD4NX07mrGLeNeAAAAQMp8DEyZjCFzOnDToHs1WYwgVUrD3yLD6wo/Z5QHyyfooJS6MCCnFAAUq5ISkcGDzpBH11wpe9+4Vv591gXSpfPx+laRDz/8XKpr/iIXff0xvSUL9PTuBKUAAACQCd8DU3aBaevDQapwT6rli2VRfMZyB7bk30pMXqjYoFfrUi8zJjoldgcAFJv27Y6T449vI23aRnpOWY4c1YVU2T9TrRn2lk/wlCMSAAAASCavAlN2kRxU9bLbS8QluEXW6KDU5I2hL845H9aWB8nPjV+rI4nde+YwuToAIH+pJOd1fzwg476/Tc45d43M/a+X5cCBz/StIief3E6GXHGmvPjHf9JbMjB8XvjHnmWVYzz+eAQAAAA4y9vAlEh36TNAF70IBqVW/R0wR2YNN7YUiSGy1Jo9kF+vAaCoqKTmv374Tbl04ONS8Y1N8pvVe43k55Z+53eWZf/vMvnrW9fLU08Ol66nnqBvyUxg2kJZaHxG18uMvrOlxtgKAAAApM6fwFRwhQx0690T7gFVLn1S6fpUF5QGXcyt/Eh+bghMkgf59RoAisY7734ic35WL+ecu1puuGm7vPDie/qW0Af7cSUyurJMnnpyhLxaP9qYva9Dh7b61mxRn4FWz+ZVMpIeuwAAAEiTfz2mlk9IPLxNBa76zjV7QFVNiyRWDfSQC9TfurkyP7Zn0PBh4S/It0fN5mcOuUtrVr5kx8sz/HoNAK2bfbhe2blr5fafvyJ//3tkuF6nTu1l5o/6SXDPNbJ+3ZUy5IozjKTouTNEltryTWUyky6AfLNVphipKNL9TplCyotB9jypHvfLNBi+ebbz46b9fOG/TM9ZO+ux7EuSH//VtWvc/UMLP9oAnvk/lM8KUNkXKyilkq1G9TIaIqN1UvRllfZ91BvQEJmlew0Zs/mFb1MJ0ctlclU6yc+THS+L7B+Olav0xlUy0toW9YGdCL9eA0Br5DZc7/y+neTeXw6Uv+y7TubfeYl073aSvqUF2PJNqc/eqOHkWflsA+CHmqkTZJkutzbBxWNs70mxzPcoAu2FJ1vnrHF+tHd6LPXjf+izK/YaS33WWdeusYzrXEazAF74E5gKTJLn1NA2KzeSg0QJzEcsSTzDnjGrn/XrrcWYSWi9zOqt11OU7Hj5J/rXa6L0AFC4kg3XUz2hrv6nc2TLE8Nlx0tjZMoPesmJJ2Z7uJ43kR67DCcHCpotmDxyud6WNveUF27fr41rAYf9jCXj9BjjpDrucbeF38tqZy6l51QhyOo5GxJ6PGuUTcWCbVHnR/h8DV1jxef0dTifwte5zJ4OeGEEpkrLUskyHpHufoqxrxWgcliWJklgPui/3425/zwZoW9Tv95G3aaDWypodeaZZ4Y/yIwgVuj256Z1M9aTCe8bflzb8TxwbafYOuslfMyYAJ1Vd8cPZf1Y9ueaioxf0zSluy/19caP+h46dFiXUldI7evHMRXq665Q6/ve+59Jnwt+K1/pviZuuF7Hju3kxzPOlzdfv1Y2PDpUrhxyppzVLYfP0/p8cvihKLKv/QJ0fWT4fYqfbV5ko31T5ccxFerrjjZyl8m+6fJ2zK0yXwcAJt8SeS8oLbtGl1Ln9bma36Mj3+Uj+0WPPtjgIY2HH69NsRxTSXff8WnuV7NR96SrWhl3jajOm2prJM1G24//xmedeT5F1Vdd51odBuo2yaYkkalCa99iOaZCfd3165/+zHP245aEvhw26zIAZKxdhweMYUbqAvrggfF6KwCv1JC951+I9I5SunU7Sf595lfl+98717eeUQAKw+q1j8v6DU/IIw//Qm9Jg+qJYgx3Uz1BUvtB1gs1XMromaJGNkQFqVWOKZWGw+wxleyH6ngqL1DMEKy4x3eTyfGRjtm33iV33r3EKN93711SNfF6o5yyLJyzNVN1z6uqlY4/8IfP2wS3xwnnTS6XhbtsP9wArcRppf1l96tbpGvXLnpL+vzPMQUAAMIuG/hlXYrYv/+wLP/V67Lut/vls8+O6q0AUIice0tlImFeoLq50jOVHD/hWcHHyWiCUkWnZ29ruN6TjkM5G/bo87Yy9VEpAJIjMAUAQB5ZuODrsmLZ5TLsW2fLccdFptV7sf59mTDpGTnn3DVy23/WGzmoAKDQBBcvNgNIA+bIrCTBn+iJh9SSYPIhW16g2LxU5tArjzl+bLOCT96Y/V5iyH+BadMiE0mFzrmoJPih88zoTeVy3toFqzfppOi9pRe9pYCkCEwBAJBnJk7oKU/87lsS3HONzPxRP+nUqb2+ReTAgc/kv+54RcrOXSvfHb9NausOSDOD8gEUhEx6SznNmLdfFt1h5gVyGno3YonOGZUox48a/mUFvlRQypg0iSF8xWuILI1Kgm+b6V0NE0xpaGjkXK9YMIVAJ+CCwBQAAHmqe7eTZP6dl8hf9l0nS5cMlPP7dtK3iJHL7ZE1e2XgoE1GXqoHHwrK558f07cCQP5x7y2VaDY/Kym5ChbMiAzNs4beJXy8ITJa95ra7WU4nxr6N4gZ1IpaeDhnZmqm6qGloXPzQQ+TbQHFjsAUAAB5TiU8n1zVS3a8NEaeenKEjK4sixrm98KL78mNE9Uwv9Uy52cM8wOQjzLpLaV6sljBqXpZU617TQWD5lApI5eU7tkSsxjDrxKJmj1U95QxHivBsEG0buHhnCqBui0wGp5dz1vOMpXzzDzvymXhr7KTRw1o7QhMAQBQIEpKQpdnV5wh69ddKW++fo3M+nH0ML+///0zuf3n5jC/cd/fJnV/ZJgfgPzgNbdUYlbvJ5HaPfvMQlap3lrWMK5VcnvUkEG0fvtl0cQEOcaMAKZ1biTPWRaeuY+Z+ICUEJgCAKAAdSs7Se6eFxnm1+/8zvoWc5jfb1bvlYpvbJKvX/a4PLTqTYb5AfBR9mfii6Jy/9h7uDgs3vJGdZNe/cxSboJfyF/7ZLcxhK9c+jieoN1k+i1Wz6mgNJilKASlgPQRmCow5nS4ZVIydaveAgAoZtYwv1frRxvD/MZcfU7UML/nX3hPvj9hu5zU+UG5b8Ubemtx8uszlM9uFLvMe0slEAhIhfqbIFAAeBbcKzt0MR0EpYDM5EFgaqtM0WPAoxeH8btq3K+6rbUnJbSeZ2iZsllvAwAgCWuY32/XDpU9O74j3x75FWnbNhKgOnKkWX486096zSP7jFUOS8t/RlnfGfzI/7JfFg2Kb4NW/50EyFToe+0N2egtFXqc23W+qMmVQ8xCYKiMzebQO9sxKnp3NwsoDoEecoFRqJcZ9zj/iBB8Y49ZGBCQnmbJEAlKqdxUBKWAdPgamDJ/QdQzFsQJvSn0LcIvfCooZSTdAwAgNX/966fys9tflkFDq+V31W8ZwSi7G76f3W/Lyypb9nM6PMtRCzO/rwyWGU4zNemky9FT2APFwhawTfBeUHOP/l7robdUzVT1WA6BZ/v346jHiQyvMqb2d+qVqPYN/+Ct65vofuHv4OPkNmZSa4WSna9DZNaCcrO4fELcORIJPkUHWNU5GwlKxeSmAuCZf4GpzbPD/9xStTJuHHi1Tm5YXLbKFIJSAIAU/fFPB2T8jduMWfn+8/aXjACVRSVHn/mjfrJ7x3fkF/+f0bUgdQ75WxqsL/B1c+WGXAZlbL22ks6ulSP2i5H47ytWMlzzopjgFAqavYdk5Sq9cZWMtLalE4S29UDy3lvKdkxrsQWMqrfHPM7weZH3IxVQSLivTdL7qaFYBBgKQpbP2cC0heH39NhzxPocqFiwzZavbL+8vlMXnc5b+9KCP+IAhcinwNR+WXSHfvNQX/KW6O64NiOWqC981rSwxUANTzB/CZ68MfJFFwAAJ01Nx+Th3+yVr1+2SQZcvskof/FFpIfU+X07yb2/HGgkR59/5yXSu1dHfUt2BKatD18M1q7b0jq/cIcuqq0hSOpiJP77iprFKxKkq505w3UacaCYpNJbSlHf/xP9OG38DybokaLejxJeNxiBdWt4lfk/m/AHcCP4zFCs4mWeH8275pi5y6KoHlGN8hw96YCc8CkwZc16YBsj7miILNW/ihhde61fMnS3+UgUOqbLr0NOjIR5MKz76u6aZnd9274tEt2OBKWio/CpsOe+8CP3BgCgJbz77qdGr6iywBqjl9Sfnj+gbzHzTF39T+fIlieGy46XxsiUH/QykqPnSuC83mYhl4mHjWm6dQ+ljXpGpKxz/gy1X1Q/mORiJPIre+LcJHax3zWcelqF72N8P7HXTy32z/lktwEpsP+vOS2xPZUM+kI+we3mD82J9nUW3idmcQ8IhK4bHPZLWq/YxeHHcuSxlM/Z5OdrWGCSPBf7WI5BUdvjuS0p/A8AxcgITJWWpdc9J939RLrLI+3N0o43stvt3QhghbtyRhh5ME66IHGQaediI+F4uLu+xQiCzZZT036ubu2kvlBGglLpReHVY+jcF8avQvNkUou/pv7sS3298aO+hw4d1qXUFVL7+nFMhfq6a231VcP1vnfDNikLrDbySDkN13vz9Wtlw6ND5cohZxpBKjeZ1jdRIthkMjrmhA26lLrEx43/DDUvPrbKBisJ8jVDXS4ousmoa6yhRE+GA0Pxx3zSSN4e+13DKTfOwLl6fIjx/SQ2v9UqGal+ODNy5yS4Ta+lItPzIR3FckyF+rqjvu5oI3fU15tCqi9t5I0f9e3XP61eNQb7cY3A1DuNUd9oPEt3P/UF7pEbzJL6MuZlVh/jlw2rW6XxxdEehTa/RKpfF638E5M32m639ms6lDgPRl291Bpjyh32C33J++Db84ySKfbXyeTLu+++65xk0f5luGpl2l1Da6bavlDraHzLv6b+7Et9vfGjvqeccpIupa6Q2tePYyrU111rqO/nnx+Th1a9GR6ut+qR+OF6S5dEhut175ba/11m9X1ENq3TAZZ+PWICN4k/J43PRIftzp+T0d5ZOVqXUpfouTp9hhrCU4eXy9iR7p/PgZGj9HeGPfK6jgrFHXP5KlkW+13D6gW2fHHUMMDn5vQzC8b3E3MISdR3E/XDmepJbv9OZLttfhozJmb7/PWiWI6pUF931NcdbeSO+npTSPWljbzxo747X0p/imb7cX1Lfj5iSWQcuNGbSX8xTT9x6FaZr3+BVEGpqOFwqjum/uJXO3Opcxd3pzHltv3sv4BmS/jLcII8W16Eg3GxX6gBAAXrzb0fyZz/VMP1Vsv3J2yPGq533HElMjr0uWkN15tcldvheomEP8NUoOVHhTn8xdtnaG/pla0PV6fvGsOnhIcB7nbq5mTsYxtCEvpucpuVH0fdZq+37bZs90gHAADIFd8CU9Y48Njkg0Z39nSCVOFfNsfJaKfeZMOH6UBY5JdMTxz3S2E8sbXEBJ6ivgxnEJQyhwM4zFACAChI/2/pHgn0Xie33/Gy/O1vn+mtkeF6wT3XyPp1V3oerpcVcbkdrRnyVO8fp0TBmX9O5prrZ2gwaOaX8irQQy4wCgkCTAl1k166c5TXYFLP3nrYoAPrtto9+4y/AAAA+c7HwJTJnnwwPNWr5pRzISHrC2TCPBfdpU+yXyQTSnc/jxy+7JfY8kVYvcnignTLJ+gv1ExpCwCtyS//325dMqng0yUXd5VH1wyVu+elPlwvZ5x6/xQKL5+hgYAemueRbehfH34pAgAA8Mz3wJSdOdWrGaQK96SKybmQDa2re3u9zJjYEjMHAgBawq9XDpKTT26n10Sam0Wef+E9GTqsRi6p2CgPPhQ0ck+1KHseo/AQ9wmeckTmNy+foSn2tAYAAEBK8iowZRfJQZX9nkoXnJdKkvF9sjsuF1hqyc+NJabnlz0IF79s0/kmIknc4xKjG79U6zZSva689iwDAOS1/l87Vf7x3nh5+vcj5Dujy4ycUpYX69+XGyc+I+ecu1pu+896eefdT/QtLWj4vHAP52WVYxL8eJT552ROefkMtQ3NW1Pt/oNWsHqTHvqXxZxUAAAARSBvA1ORIXQeWV3u64LSYGyIZQWYUuxin9dd84fIUmsGnlbxyzUAQFHD9wYPOkMeXXOl7H3jWvn3WRdIly7H61tF/v73z+S/7nhFys5dK98dv02eq/270bOqpQSmLQwn7J7Rd3bWJwdpGW6foUNktO69Xbtui0uvqv2RGQqrhjG8HgAAIAX+BKaCK2Sg2y+jwS2yJpVAUviXzVWywSlAs/lJWWYUUvslM/wL6IBRMiq8Xx4ldQ1Mkgddf7kGABSqsnNOlDt/frG8tXes3HfvZfLVC7roW0SOHDkmj6zZK5cN/l0LD/NTn4NWz+ZVMjLuMz3/k58bXD5DR/xIB67q5soNSSZkCS6eUfAzFAIAAPjFvx5Tyyck7rqvAld955oBoappkcSqVvAp9AVxvsMvm7PCXy7Lon/5VI9XucooViyY4vxLpkMuq8iMPSKTb8nfWe9axy/XAIBkOnRoK1UTz5OXX7g66TC/r/Qwh/m9/U6uh/kNkaW2fFMpzaSbR5J+htoCV8aELINi81GZQxat7woVCxYWZjJ4QFHfl2OH2Cb6ru6JxyG9aT++tnm28+O25ztxcdkqU3L1utv+NxxHqHAOAhnzfyifFaCyL1ZQSiVbjfoFNdKt3pqtzlzMf3qVt8lKmh51u+3xHozN1RSmvpDa9gktkS+a22TpcKOYp9x+uQYAtBZuw/wOHDCH+XULrJXrv/d0bof52fJNqcBNToaU27/w6x+ZjM86a1tcsChVyT9D1XeL8KzBcTPpRmbRVd8V4vJBAoVC/Z9Z35djGd/V87NXvvoROfK+EMt8nyjUoDlSUzN1gh4dk2X2DhMOOAeB7PAnMBWYJM+pbvtWbgcHRtLv7fG9lEYsaYx8QXSgbg/PGGST6PHCqlY6PK6aRtoh8Xheiv7lukWTyAIAfGEN8/vLvutk+dLL44b5rV67zxjmd+FFG+QnP33B2JZtkR5HhTykPPlnqDlhSWRikih6xkKCUih846TaPrw26ru6lxksE7Mm83FcMh7G61Bv2/9r7cyl9FpprWw/XIxcrrdl1VaZkiQoFcE5CGSqJPSP04LpUvOQekNTUW41Q48f+S2AVqZdhweMi9+OHdvJwQPj9VYALUH1jNr+zF/lf365S9Y/9mc5diz6I/7ii7rK87X/pNcAtEar1z4u6zc8IY88/Au9JUPWd2XjB9v1KQxXVUP5zF6FKjDV8qMP1NAusxeNP8eHF7NvvUvuvHuJUb7v3rukauL1RtmT8Llpp4JE87IwCYX9/Nkmfe5I51zmHETrdlppf9n96hbp2jXyw2i68nhWPgAAkAo1zG/A178sV1eWSb/zO+utEfsbP9IlAPDImvm6RVn5gmxLysN2U5zhG4Vn+LxIDyWHETPpiwSUMkvpwjkIeGUEpkrL0vuPSXc/xY99qa872sgb6uvu0KHDupS6QmpfP46pUF93xVJfa7933v1E5vysXs45d7XccNN2eXXHB8Z2paSkRHp0P0m2/X6k3mIqljZSqK+7YqkvbeSNX/U1cvbooEAUI8db4uHCcccNz/A9TkYnCSz40UZKuvsWyzGVdPcdn9ExL5ZFgyJBqVSGacfVl3MwTiEdU6G+7vr1T78roP24DOVjKB+QVQzlA1qOGrpX98cDxtC9tY/uj8sh1blze/nBpF4y9V/6GPmoALR+2R7KF5mlOtUhUpGhfPESPJZtaFbs0KeaqTqPkMrrlixvrGJLWM0QqvyW0VA+u/C5k8lQPts5G3VtmMawVM5BFAGG8gEAUMQ+//yYPPhQUC4d+LgMHLRJfrN6b1RQ6oJ+nUNf8C8zkqLfdcfFBKUApGmrzA/PUj0lC3l7LE6zlYUu/u9wDkopI5bo2TPrNskmp15TKjBhDftTAQE9MQEBAXhVM9UpKJUCzkEgbQSmrLHJ9JYCAOQ5+3C9Gyc+Iy+8+J6+JfSBflyJfGd0mWz93xHyyoujpWriedKhQ1t9KwCkLjwFf+gC+8GUZ57sJtO3WzOU2RcdYAqpnTkjMjTPGvYUOtYsxwv5ITK6Sv2tl91ekk2poX8p56VCsVI9A8M98rJ1Xcg5CHhGYAoAgDymhuvV1h2Q747fJmXnrpXbf/6K/P3vn+lbRbp0OV5+MvMC2fvGtfLomivlisFnGEnQASAT4Qt1NRvfr1yGzqVkiCwNB6fqZU217jUVDJrT8hu5pHSvk5jFrE8C9kTY1lT9xmPNZqp+eOd4/kWGpC6rNLdF9/bTOAeBtBGYAgAgD1nD9S6p2GgM13tkTfRwva9e0MUYrvfW3rEM1wOQVZG8UuWycNd6mZ69qJRm9X4Sqd2zzyxkleqtpQMDskpudwoiADnFOQikgsAUAAB5pKnpmIys/F/58lmrjOF6L9a/r2+JDNd7+vcj5OUXrma4HoCsy31QyoXOyxPpeRK/eMvZ00169TNLuQl+oTUJTFvveK6ZixVgMvOfqW3eZuvjHAS88i8wpWYqiOsmGVmmbNb3y5CawcN4zGyM77XqnDdjhdUMEZE2S7hM3arvDwDIdyooVbP5L3Lo0Bd6i0inTu3l32dFhusNHsRwPQDZ52tQKhCQCvW3LigNxgYAQLHI2x5T5vhdxuMCAIqLyhkV66OPvpB9+w7LW28dNnJOAUC2RYJSarr9HAelgivkdp0vanKlTjQdGCpjsznsyXaMit7dzQLQkjgHAc/yIDClPvxiuktuHKdvWyUjM+ydNGKJfszt2UzamH+sbqWOCzMOAkDBeOShK+Tmf+srgXNP1ltEjh5tljXr9sk3hlTLRV9/TFY+2CCffXZU3woAmVEjDCJBqXkywtzsga33fsx3dnPUgsOPzGoEgppKX5WjZuDrJtNvMa8BamcOdu7xb4xeGKNn8tPHTnQ/6xih53RbyjMKonVKfL6mh3MQyJb87DGlZjTYNUd3550r87M0rA8AgHx3XOiTedF/f13e2HWNbNsyQv55TJmRW8ry0ssfyE1Vz8rZ3VfLD2+uk7o/HpAPPvhc3woAqdovr+/URfWjsD0dROyS8sW8w+PZLtarY384Dl0DNCwoN8vLJ0TvF7WvTdL7qSGJqQTaUFA2z4685pWr9EbbOddS6Vc4B4GM5e1Qvkh3XpEdb8R057W/CeklUU4q1S3ZuE9MJDt2e3hdL7FTgBq/+lhvMHHTiNp+DTJ+ybHfZi7ZypkFACgOKofUoG+cIetWXyn7Gq41ckzZh/m9//7n8sv/t1sqvrFJ/m26nscaAPKEGrVQrWfei1WxYJs0J+iZZSahXimT9XoUIzG6NcxQzXqW+BhStTL0OD4kb0cR4RwEsiV/A1MJGAGicEQ8wshJlVZU/EmZ0t7qvhyRsAtxMipg5vRLTsiySqvbMQAAqTnnKyfKnT+/WN7aO1buu/cyuaBfZ32L6c29h3QJAFJlXlw7poOIXeJSY9j2dUibEU6pEbO4z2g2RJY67JfKMUhlUQTUKBun195aUjxfE4vs5zQjJOcgkLk8Dkztk936B+ALzjM/vFSvppFWokR7TiXbsL8bUk2WuHyVLDO6WNoez8pxtXxxOJhkvOFYx4mbxlb94rNVpuiAmfkrkP322F99PM6mZ19cgmRmsnj7QuJ4AGhtOnRoK1UTz5NXXhwts3/yVb1V5KLy03QJAAAAKCz5G5ja/KQsMwrl0scIZ2+V+bpXkwpKRUWrA5PkOR1Mqp25NLWAjFMXy+FTZKExjLBednvt5RTcKzuMglNyO/WrT0t34zTHV8cOSQQAFD41zK937456TeT44wuuAzQAAABgML7JlpbpZE4pSnc/pXTwIl2KZ+R7sobrVU0zAzq2wM+6KQ7HHT5M90raI68nCCZ5r2836dXPLFn5rbzvG3/8+H29dZk+88wzI+uOXUETPc5K6aDvUTtzRkpDCDN6TX3Yl/p640d9Dx06rEupK6T29eOYCvV1V0z1TVcxtRH1dVcs9aWNvKG+7oqlvrSRN9TXHW3krtDq26+/w/hWj+zHLWluamzW5ZYVNYVmAqo3kxWQUfmbVLBKDaNzHBOshscNlhl10T2qVJDLyB9lf6yQRNstKpeVGjaohuWFx8FbdXasQ+T4lqh9W9xWmdJ+gtHrzN96oNi06/CAHDlyTDp2bCcHD4zXWwFk24MPBeXGic8Y5Rk3ny/3zL/UKAMobqvXPi7rNzwhjzz8C70FyF+zb71L7rx7iVG+7967pGri9UYZQP47rbS/7H51i3Tt2kVvSV+e9v0fJ9UJewm5i5vFr0Wo3kvRuaSMBOo651PLz8o3REbrGSJq9+wzCwAAAAAAAHkkDwJTOggVtThPH+uVlSy95dlnEIkOUkXPypf95OcAAAAAAACFpnCypQYCeua9oDQYG2JZs/hZydL9ZgWptoUTqa+pJhE5AAAAAACApYACUz3kAqOwSjY4DYsLz+LXW3rlRWDKEkmkHuEt+XnUkuqwxuAKuX25WZxcmd6QSAAAAAAAgFwqnMCUDJFZC8qN0rLKmJxNKim5nsWvYsGUjIYBJmUFx+rmyvzY4JhKzt5+ttTo1TBbgCjbQwxVgvZExwwnlh8wR2alnygfAAAAAAAgZwooMCUSmLZeqnVCbxWcCudfsgVhHszp7HORhOJRxw8Hh1bJyPA2vVh1q1oZnikwu5IcU+XvcpzBEAAAAAAAwH8FFZhSRixplOaN4/RaxOSNoe0tEIRRx2/QPbeiDJ8nzbvmmHmwYhh1S3OGwWRUXaxAXayKBdsk0yTyAAAAKBJG7/+YHzuNxaF3vleqF7/TYyac1MfjBEGZTgqUi+cKn22VKVl/DVN5TOu+9sU++RWAZPwLTAUmyXNG/qQ0gicqCBSTgylRbyTVy8opR1Oi7RYjABa6/TmHHljhfcOLfg7h5xS95KanlMmqZ+ziVG8AAAAgVnDxGCnRaTHimb3zBy5OcRIfFfwJ9+KPsXyCbxftOXmu8F3N1Ak633D2eH1M45xq73TfepnRt4zZ1QEPCq7HFAAAAIBsGyfVcT92WrNLi9TOXJpGTxSHxwyPMAhdtE9cIYliU8aIg9h9rSXjkQi5eK5ocbaebyN1Tt+MpfqYofv3nFlvFM0RK5FzKjzKZvmE6PzIAOIQmAIAoMB88UWzHDnSrNdEjh5tlqamY3oNAFJjjgZwGsWgZpJeKZONcoKZsRMxRjg4PKYaYWCl5ajbJJtauNdUTp4rilbNRt37rmpl3IgVda6F8yNvpNcUkAyBKQAACkz/SzbIpMnP6jWRxb/YJcef9IARsAKA7OoufXRPoqwJBBzzsmbGIcfPoMQ9spzl4Lkid+zpXRxyEKcly4/Zs7dDbmIAcQhMAQAAAHAW3CJr6lRhnIzOYd7UTCTM8VM3V3qmksuqAJ4r8ks48LT8Scfhnw17zGF+kyuzPxEW0JoQmAIAAAAQT82qpxOYT96YxoRFCQSrN+mk6L2lV4IptZdVxvR+SjQzmi3HT2xeKnMYVfJcVmE5eq5o3QLTpoWHf8Ylzg+dm0aeqgFzZBaBTiApIzBVWpZen9V091P82Jf6uqONvKG+7g4dOqxLqSuk9vXjmAr1dVdM9U1XMbUR9XVXLPWljVzYkj8bs+qFLqobmrzPMu1+zK0yP5wsekpUAKi07BpdcuI0Y95+WXSHmeOnQ5cz4+o4YonOGZUol1XOn2tiBXM+hPhxTCXdfce36DGHyNKoxPmDI+eUmv1RnVPbJ0mC+Kuh0Nq3WI6pUF93/fqnH3W1H7ekuamRhBQAsqZdhwfkyJFj0rFjOzl4YLzeCiCb+n1tvby266Bei2j6eIK0a1ei1wAUo9VrH5f1G56QRx7+hd6SIhWsURfUdh4urr2qmapnO0vpMVX+KGuoXrks3LVepqsdrV5OSR7LOp7qTRUXcMrxc4W72bfeJXfevcQo33fvXVI18XqjnLLwa6lmXMxSjzevj2nrbReH8wmt2Gml/WX3q1uka9cuekv6GMoHAECBObfHKXLWWR30msippx4v5/ftJCUl/NYEIEP25M9WTxAjV1OCoXQpULmgzCn4y2Xhr1K5WFe9UqwZ8+plTbXuNRUMmsEAo366l0rMknTK/xw+VxSJcFBKBa+scym0hGeeTDHPGVCkCEwBAFBgHvvtULnj9ov0msgN4wOy8+Ux0rYtH+sAsqmbTN9uDVNaJbdHDaNLjQpKmbmgbD2eUjJERuup92v37DMLWZW954pisV8WTTR7SsXlJTOCntb55DHPGVDE+AYLAAAAIIFu0qufWUo3IJR5UMqFGi5l763isHjLG5X5c0Ux2Se7jVkcy6WP4zndTabfYvWcCkqDWQLggMAUAAAAgJzIaVAqEJAK9ZeLfvghuFd26CKAzBCYAgAAAOAsuEJu13maKnp3NwseRYJSKv9OhkEpWz0mVw4xC4GhMjabQ+8yeK4oQoEecoFRqJcZ92w1SrGCb+wxCwMC0tMsAXBAYAoAAAAoWvtl0aAyKZnqcGEdNdvYOLltWjejFKH3VYnGB0Xn0FGz4UWCUt5mSVP7lDglHrfXY8AcmRUelhcZKmVM05/oOYSTT2fyXFH4Ep+v6RkisxaUm8XlE+LOq0hgVmTyLczMByRDYAoAAAAodurC2jabnbGEAzVqGF4qU/Dvl9d36qKskpGxj2tf4gIEDve3BYyqY6feHz5PGuzBgYT72mT1ucI3m2dHXr/KVXqj7fxJJ/iU4mMGpi3UCc5DYs4rKyhVsWCbxxxnQPEiMAUAAAAULTUbXaNU6xnv4lStlOZMh+F5NGJJ4nqoi/vmBD2vAtPWh25bKZP1ehQjMbpV//x5rmgtzHOqedccM99ZFNVbsFGeo/cd4KqkuamxWZcBIGPtOjwgR44ck44d28nBA+P1VgDZ9uBDQblx4jNGecbN58s98y81ygCK2+q1j8v6DU/IIw//Qm8B8tfsW++SO+9eYpTvu/cuqZp4vVEGkP9OK+0vu1/dIl27dtFb0kePKQBZ8dqug3L/Aw1y7Ji53tR0zFh//Y1D5gYAAAAAAGIQmAKQFU88+ReZ+INn5ZiOTH366VFj/elt7xrrAAAAAADEIjAFAAAAAAAAXxiBqdIyayqB1KS7n+LHvtTXHW3kDfXNrUJqXz+OqVBfd8VU33QVUxtRX3fFUl/ayBvq665Y6ksbeUN93dFG7gqtvv36pz/lpP24JD8HkBX3LNopP/7J83ot4t5fDpQpP+il1wBkC8nPATgh+TkKCcnPgcJF8nMAAAAAAAAUPAJTALLi8stOl3n/dZEcd1yJsX7CCccZ65decpqxDgAAAABALAJTALJCBaB++pOvhgNTxx/fxljv/7XMu3YCAAAAAFonAlMAAAAAAADwBYEpAAAAAAAA+ILAFAAAAIB4wRUysH2ZlISWKZv1tkxsnm08VvwyW2r0XYD0bJUpnEtAwSIwBQAAACCaCkr1nSu1ejVTwcVjpKRylV6LtUpGti+TgYv363UgNTVTJ8gyXQZQeAhMAQCAVuXIp0d1CUB6tsqULAalIsZJdVOjNEct22ThAPPW2plL6e0C72w98EYu19sAFKSS0AdCsy4DQMbadXhAjhw5Jh07tpODB8brrQCy7cGHgnLjxGeM8oybz5d75l9qlIvVZx82yc61e2Xrz16S9ie2la69Oulb4NX3Hv+WLqGQrV77uKzf8IQ88vAv9JZUqSFRZu+TyRu3SZ87BsuMOlVulKXDzXtkn/2YuTwO8s3sW++SO+9eYpTvu/cuqZp4vVH2RAWm4nrhqeDnPBmh1wDkzmml/WX3q1uka9fMZ2EnMAUgqwhMAS2DwJRI0+Ev5LW1+42A1Dsvvif9ru0h773xD/ly307Sc8TZ+l7wKnAVbdYaZBaYigSIKhZsk+emiSwa5CUwFdkvbMAcadg+SQJ6Nbn9Ho+D1iajwJRdOEhFYApoKQSmAOQtAlNAyyjWwNTRpmPy2tp9snPNXml85m9y/rXdjIBUj2+WGrf/7oe1cvpXO8vFk3sb60CxST8wFQkOmUGpblHbEgWMVO6onjPr9Vqsclm4a71Md4tOhfNZEVQoNgSmgMKVzcAUOaYAFCj1ZVnP5jN1q96WmJF0Vd130AoJ6m3x1C++zOgC5J1mMQJRq695SuZ1+bW8+fu35ZJ/6SOzPxgvlUsvDwelAKQrEoCSqpU6KOXB5tnhoJQKXEXyRjVKdZXaWi8zJib73A2xJVmfvJGAAgAUIwJTAApUN5l+yzizuPxJl0DSftm0zvziXHHN0ITDCpjRBcgvuzc0yrpxT8vPTrhfXt/4llx4w7ly6+EbZcz9gxiqB2RRzdRIUKp5yRBzo6v9sugOM7+PU2+qEUtWymRVqNskm2IjU7ak1SUqKKWG/TUxhA8AipURmCot01NhpCjd/RQ/9qW+7mgjb6ivu0OHDutS6jwfd/gw80uvrJINm5PsF9wia9QXbimXsSNjfgW2fTlOZ0YXP14XJd19qa83hVbfdOVjG73xu7fktzduk9s7PCA7Vr0pfb5TJv/385vknx8aLFf+23X6XqnLVX2Tycf2TaZY6ksbRVM9io3PPxUcsgWlXPe1PltD+82yBZQi+w2R0brX1O6kXaZC6uZKz0Er5Ms5fq5Oct2+iRRSfQutjcYXWH0LrX1pI3fFVN9+/dP/RcF+XHJMAciqls4xVTNVB5SS/Mobzn/hlIg1nJPAjvwEyH+tKcfUm0++LTt13qgeV5ZKv7E9jNxRx7VNvWM3OaZQ7FLNMZU8R1S8cP4px89PZ8kTmtuGEfL5W3TIMQUULnJMAYA2otJtOJ/LML7h8yI5MTbqxwKQc/u2viubpj4nd572kNQufk3KLj9d/v2v35Pvrv+mXPDdHmkFpQAUom4yffs2WWj8cL5Kbl+839gKACgefOsDUNhihvPFSTaMD0CL+vMf/iY10+tkfulv5Jk7X5Ezy0+VGcHrZPymYfK1G3tK2y+10fcE0FIC09ZHJS2PXqyAUSS5eVxidJ0fKn7fyOKeO6qb9Opnlmr37DMLAICiQWAKQIGzcliILNsYPztfsHqTMdOPDBglo9ymqwaQdW//6YA8MetPck/Zatly64ty6nkd5f+8OkZueGK4XFTVS47v2E7fE0BBCQSkQv2tC0qDsQEAgPQQmAJQ8MLD+XbujZmS2ttsfACy668vfyC//48XZFFgjdT86I/S8ewT5Qd1/yQ3bR0pl07tIx26nqDvCaBgBYbK2GwNvwuukNv1BCQVvbubBQBA0SAwBaDwWcP54qak3ie7GcYHtIi/v/ahbP3Pevmfvo/KY5OfkS91Ol5ueurbUvXsKBlw8/ly8pkd9D3zk5pIQc3OOTBP8tvkW32AeN1k+i3mD0O1MwdLydT4Xssq4DSw/RhZFFQJzkPndKL79J1r9m6WcXJb7FBBAECrR2AKQCsQmZJ6TbXtIm7zk7JM/a2aJtPpLgVk3fsN/5DtP39Flly4Xh4dv03atG8j39v4LZnyp6vlslkXSMdzTtT3LExWcKhk0IqY3pipydbjAHln+DxpWFBulpdPMM9z+xIOOGlJ71MuC3cxmxpSoGbis86j8AyRq2SktY33XKBgEJgC4K9lD4mMmahX0mcN56tdtyX8JaRmo/klZXLlEOMvgMwd3H9Ynr37VVl6yWPym9Fb5OiRo3LtI0PkX18aLYNuuVC6BE7R9wRQDMzk6Sv1RCQxjMTo62V6QM281yjVOidknKqVocdQ99PrAICiQmAKgL/2vyXyx5f0SgbihvNtlQ1GvopxMtp1NiAAyXz0zidSu2inLL9skzwwrEY+P/SFXL38G/LD174jQ/5vuZzWp5O+Z+syYomeVWz7pIxy1GXrcYCWZwaU3GfWGyJL9Qx8UUvMOR/+X4hdlvADEtIwfJ7z+WQtvOcCBYPAFIBWImY4X3gY3zCGBQBp+Pjvn8mffrlbfnXF7+S+gY/LR+98KiMWfV1ufuNaGfpfF8kZF3bR9wQAAADSV9Lc1NisywCQsXYdHpAjR45Jx47t5OCB8XprErfME1m5RuSdLPSaUrkGVI6BAXNkYb+5MmO5yOSNbr/y2lj7yzipbiLPBfLbgw8F5caJzxjlGTefL/fMv9QoZ+Kzg03y2tp9snPtXjmw66Ccf2136XdtD/nKwC/re+S/3/2wVk7/ame5eHJvvSXWVpnSfoIZuLZUrZRqmSAjQ+8ZFQu2yXM6+XJw8RjpObPeHGZk9OiI7JvwvSWcyDnyPhL/OHbe6xPNYT81bMrWQ8A6rvUYKteVeszY+6F1ueOuX8iKX62WK4cM1FuA/PX8C6/IK6/uNsrfuPwS6XXeuUYZQP57aNV62bPjKSkrO1tvSR+BKQBZ5RqYWvu4yOdNeiVk7SaRZ/4osvh2vUG7okLk7FK94lXshVqKASYCUygg2QpMffHxEdm5dp8RkHr7+QPhYFS3K87Q9ygsyQJT4QBREskDU2YicyO44xhkct4nUWAq1fpYku+nEkibuXqs+1UsmCMXzJwbeW8kMNWq/c8v75dfP7xeJleZuReBfPbbDTVSs/lpo3zD+H+Wb1ye+Y8sAFrGjNB3i9d3PiWlpZl/ZyQwBSCrXANTZ1wo8sFBvZLEutAlVOVVesW78EWjkuDCMUo4GJUAF3DIU5kEpo590Wz0ilLBqH1Pvyv9ru1uBKTO/dZZ+h6FK2FgyjYlfXywJxLUdgtMJQ9gqynxB8uMuugeVY6Pk0Z9DLb3rNheW7E9osQewOK9rGisXvu4rN/whDzy8C/0FiB/zb71Lrnz7iVG+b5775KqidcbZQD577TS/rL71S3StWvm6R2MHFOlZQOMlVSlu5/ix77U1x1t5A31dXfo0GFdivHqUyJ/fiGy/OsNIl06RW372umni1zlElByoOprzc6ntMRsfMX0mlJfd7k+purR9M6L7+m1eB/u+0iCm9/Wa/FUIGr1tVvk550ekDeffFsW194nt3z4falcdnnKQal8bSNn+6Xj1/SU9FUr43ogRXLUeWBNtCCrZMNmoxAR3CJr6kJ/B8yRWcOT1Xe/LJqYvD7rOuhilNB+dzgHpZQRS1aKsVt4EgiTCm55SQLsx2tTLMdUqK876uuONnJHfb0ppPrSRt74Ud9+/Z3yGnhjP64RmHqnUX2LSl26+yl+7Et93dFG3lBfd6eccpIuxfjyqSJnnBZZTgxdRh0XeiuybXv5rT+JHN9e7+CdUV/bDC2ecktlOKNLMb2m1NddLo/5tx0fyOP/8pyUXtRVb4nXufvJ8uqqoOx4ZK/eIrLnsT/Luu89LT9rf7/s3tAoF47vKbd9PEHGrBwktX9dre+Vunxso4SCW+R8YwRxuSz8UaYB6yEya0G5UVq2cavx1xKs3mT2gLpmqPG+kbC+VgArSX0echqFFRP4ijdE1ulJIHbbAlNe+fHaFMsxFerrjvq6o43cUV9vCqm+tJE3ftR350uxv9J5Zz8us/IBAFAANkx6Vq5d7R5U+c4Dg43hbOtv2C63n7hSXnmoQfqMLpP/23STXPPwFdL76nP0PYtIMGj2TpLe0isLY9kCI0dJhSosf1JqjC3Kftm0Tg2bK5exI2N7QMVItz7WfnVzpWf7MilxWMJDmQEAAAoEgSkAAArAP946LB06H6/X4r35v2/LxsnPyh2dfy1HPz8qZ1WcJv9x8Ea5bu1QI38UQgYEpKcuZiQwVMYavc9tw/nCvZlGySivwaZs1QcAAKCAEZgC4K9vDhL5yVS9AsDJP/78sbQ/sa186dTowNQpoWWU+nvvHqld9Jp8ZeDpMuud70r3oWdK57KT5bh2Jcb9kG3dZNQ10cP5Yofx5ZRKZO409Ni2eBrKDAAAkAcITAHw15WXiUz/gV4B4OTwXz+Vsy4+Ta9FlIaWv4aWj27qKeN/N0z6T+gp7Tq0lS/36SSfvv+5cR+EBALm0Lu6oDQYGzIXPZxvq8w3Zr/zMIxPSbc+OXgeAAAAfiMwBQBAniu9+FQjcXmsPaHlhdDSfHwbY90SfPIdOf1rnfUaJNBDLjAKDjPppSswSW4zEo2HHnPqk7JMFaumyXQv3aXSrY9tCOHti/cbmwAAAAodgSkAAPJcyXElcsF1PeTvOw7qLYk1H2mWDqcdL6df0EVvQdRMepVjZFHUjHVbZUqaScNHVJpT5y1bvsr4O7nS64x/6danm0y/xTxm7czBUjI1elZAQ3CFDGwf+5gAAAD5i8AUUOSOHDkmvc7/bdaWo0ePGY/70UdfON6eztLva+uNxwSK2RX/2V8e+eff67XEVo35vXz9h331GiyBaQtlodHbqF5m9LXPZDdBlkm5VBi3pWj4MJmsiyLjZHQKeZ3Srs/wedKgg1qyfIJtP730natn/AMAACgMBKYAyBsN/8ja0txsPuaxY9l73OCbh8wHBYpY5+4ny9jVV8rSSzfKJ+99prdG+813tsiF48+VXqPO0VsQ0U2mb2+UamP4nU3VSmluWi+39dPrKRkio63HqxomI3TRm/TrE5i2PnSflbagmI2RGH29tyGFAAAAeYDAFICCFlw8xuwl4DSkJWy/LBpk9iYYmLO8LJFjJF2S1tNieywP9w+3waAVwuid1u2M/l1kxMKvGwGod+96Va4KbRscWjpsaJSV36qRC67rLv2u62HcF85GLImZwW6JOfzO2v7ctEjycjMAFLmPk/DjJblPssdJpT7RhshS+37Wsn1SeFZA67iJHwMAAMB/BKaAIte27XHy3rvjsra8sesaY2nYfY3j7eks7zRer2tbLCJ5ZMwZv5LZL5vWqdnAWmiaevjunMtOl4lPj5TOo8tE9SU8Elq+6H+qjN84jKAUAAAACg6BKQBy6qnHZ23pGTjZWALnnux4ezpLly7H65oWhskbHXoxWEuSXhVRwrlrXGbtCm6RNXWq4HGaerQKKhn6Cb06GrmE/hBavig7Sdp+KXpmPgAAAKAQEJgCgLwUyV2zbGPi4XzB6k1mouMBo2QU3aUAAAAAFBgCUwCQp6yp6BMP52MYHwAAAIDCZgSmSsvSmSM5/f0UP/alvu5oI2+or7tiqW9Oj5lkOJ+xbxrD+PxoIyXdfalvbhVTG1Ffd8VSX9rIG+rrrljqSxt5Q33d0UbuCq2+/foP16XU2Y9b0tzUqCd3B4DCo2ak6zmz3pxiPWH+JjXL3WCZUSdSsWBbzAxVkds8czxWsscZJ9VN81KcSt5UM7VMRi4PFRyOGX7uanp420xcKA4PPhSUGyc+Y5Rn3Hy+3DP/UqNc7H73w1o5/aud5eLJvfUWoLisXvu4rN/whDzy8C/0FiB/zb71Lrnz7iVG+b5775KqicU24Q1QuE4r7S+7X90iXbt20VvSx1A+AMi5VTKyfZkMXLxfr3sXHs63c68EzZLGMD7ASb+x3aXs8jP0GgAAAPIdPaYAuAq+eUjm//dOvZZ9t95yoXzl7BP1Wmoy7zGVa1tlSvsJsswol8vCXetlekpRJGv/2H0TbUexoMcUACf0mEIhoccUULjoMQWgRf3tb5/JsuWv52x5//3P9ZFaoyGytGmlzhVVL2uqU+01Zc3OF7Pv5ifNYFfVNIJSAAAAAAoWgSkAyDkruCRSu2efWUiBNZyvdt2W8HC+mo2rjL+TKxP1EgMAAACA/EdgCkDrEJeDySs1zK9MStqnsEzdqvdtIdbsfHWbZJPxJLfKBpUQXcbJ6PQnwgAAAAAA3xGYAlDQAufpmbfqgtJglhzsk916trwLzmvJ/FLZEjOcLzyMb1haM/0BAAAAQL4gMAWgsAUCUmEUVsmGzUYhnhXIkXLpE5ePqZtM394ozU0pLAmTrCcQXCG3Gz2c0h96Zx/Ot4hhfAAAAABaCQJTAFz1O7+zbP3fEZ6WNm1KjH1OPLGt4+1OS+Dck4190hKYJLfp/E3LKstkSmxwavNsKak0Azm5TBReM1UN85stNXo9LLhCBvadK7WqPGCOzEp36F14ON9cmcEwPgAAAACtBIEpAK46dmwnVww+w9NSUmIGptq2LXG83Wk56aR2xj7pGrFkmywcYJZVcCoqH5QVlBowRxpS7emUslUy0n5stVhBKRkn1dsnSfpxsUgCdQPD+AAAAAC0AgSmALQCejjeRnO4W6zJG0O3ZRQUcjdiSaNU2wNHNhULtklz07yMA0nWcD6FYXwAAAAAWgMCUwBaj+Hz4vNBhZalLTTkTQWnnI7/3LQsJVy3Pb+Wek4AAAAAkEsloQucZl0GgIy16/CAHDlyzBj+d/DAeL0VQLY9+FBQbpz4jFGecfP5cs/8S40ygOL201vmyS/v/bWccfppeguQv95//0P58OA/jPKXTztVTjklg7yjAFrUvv1vyZ6dT0ng3Mx/hCcwBSCrCEwBLYPAFAAnf/vbgdDFwl+ka9fOeguQvxbcs0yW3vewUf757bNk7DWjjDKA/PeXv7wrl192ibRt21ZvSZ8RmCotGyDvNNbpTd6lu5/ix77U1x1t5A31TcwKTJWUfC7HPv8XvTWiIbhPjh49ptecDbryOtn7+jY56aQT9RZvCqWNLNTXHfVNLBuBqdbeRnbU112x1Jc28ob6uiuW+ubymIcOHZaPDh82yp06niInntjBKCuF1EYK9XVHG7kr1vrSYwpAVrn1mDr1jAvlgw8O6rXE1q9bJqMrr9JrAGLRYwoAAACtAYEpAFnlFpja/MTT8sWRI3otsUsuulDOOIP8GEAiBKYAAADQGhCYApBV5JgCWgaBKQAAALQGx+m/AAAAAAAAQIsiMAUAAAAAAABfEJgCAAAAAACALwhMAQAAAAAAwBcEpgAAAAAAAOALAlMAAAAAAADwBYEpAAAAAAAA+ILAFAAABaYheEj+8pdP9JrIe+99Ljt2fqjXAAAAgMJR0tzU2KzLAJCxdh0ekCNHjknHju3k4IHxeiuAbOr3tfXy2q6Dei2i6eMJ0q5diV4DAAAA8h89pgAAAAAAAOALIzBVWjbAWElVuvspfuxLfd3RRt5QX3eHDh3WpdQVUvv6cUyF+rorpvqmq5jaiPq6K5b60kbeUF93xVJf2sgb6uuONnJXrPVlKB+ArGIoH5B7DOUDAABAa8FQPgAAAAAAAPiCwBQAAAXmm0NL5eKLuuo1kUDgFPnO6DI5jk91AAAAFBi+wgIAUGAW/ffX5d/+Tx+9JvJP3/6KPLrmSmnThmF8AAAAKCwEpgAAAAAAAOALAlMAAAAAAADwBYEpAAAAAAAA+ILAFAAAAAAAAHxBYAoAAAAAAAC+IDAFAAAAAAAAXxCYAgAAAAAAgC8ITAHIimee/Zv89D9ekGPHmo31zz47aqz/8U8HjHUAAAAAAGIRmAKQFc+/cEDumr8jHJj6/PNjxvrLr3xgrAMoQJtnS0n7soTLlM36fk6CK2Sgwz4lU7fqOwAAAAAEpgAAQJqWVZZJyaAVEtTrYSqg1Xeu1OrVKMsnSEn7MbIobicAAAAUIyMwVVo2wFhJVbr7KX7sS33d0UbeUN/cKqT29eOYCvV1V0z1TZfnYw6YIw1NjdJsW047pb15W91cuWHxfrMcZZxUx+zTvGuOmHvVy4yJDgEtF8X0mlJfd7SRO+rrjvq6o428ob7uaCN3xVrfktAXRXPcDQBk4J5FO+XHP3ler0Xc+8uBMuUHvfQagGx58KGg3DjxGaM84+bz5Z75lxrlrFI9nypXmYGp7ZMkoDdbgovHSM+Z9Qlvd2Q9ppTLwl3rZbqnnQAAANBaMZQPAIAC9OGHTbok8vimP8vT2/4qzS38U1PgvN5moS4oDWbJXSAgFboIAAAAEJgCkBWV/3SO/HbtUGnTxnxb6dChrbE+7FtnGesAsuvNvYd0SST45kcy5Fs1cuFFG+S+FW/IJ58c0bfkVvCNPWZhQEB6miUAAAAgJQSmAGRF4NxTZMzV50hJibnerl2Jsd6920nmBgBZNeybZ8npp38p/D+n7Nj5oUz+1z/I2d1Xy7/f8oI0/vljfUsu7JdN6+rNYr8e3obxhQSrN+mk6L2lF8P4AAAAih6BKQAACtCob39F/vrW9dL45li55acXyqmnHq9vMYf53b1gh/Q4b61859otORnmVzN1sMyoU6VyWfijIcY2d1tlvspJFVKxYIqMMEoAAAAoZiQ/B5BV7To8IEeOHJOOHdvJwQPj9VYAufbpp0flkTV7ZfEvdsnLr3ygt0acfHJbWfubK+WqYSkMrw0nKk8ktQTmNVPLZOTyUCGVZOkAAABo1egxBQBAK/ClL7WRm27sKfV/ulq2PzVSrhh8RtQwv48+OiLXfe9pvZYFVSulucl7UErN4GcEpVQw61cEpQAAAGAiMAUAQCuhek3d/0CD/Nv0Wsfhe4O/cboupUj1cGpqlGa1bBxnbls+QaZsNotuVFCqpzGEL7UeVgAAAGj9CEwBAFDg3vrLxzL71hflKz1Wy6TJz8orr36obxFp00ZNRFAmv/n1YHnst9/UWzMwfJ40LCg3issqx8iioFFMiKAUAAAAkiEwBQBAAVK9oZ559m9y7fVbpXvPtXLn3a/K++9/rm8VIxn6T3/yVdn7xrXy27VXyvXX9dC3ZC4wbaEsHKBK9TKj72ypMbbGIygFAAAANwSmAAAoIGq43q9WNkj5pY/JoCurZd1v98vRo5Exexd+tbOsWHa5vLX3Opn3XxfJOV85Ud+STd1k+vaVMtkor5KRU7caJbtIUGqcVKeQiwoAAADFhcAUAAAFQA3Xu+W2yHA9+8x7arjeNd/pZiQ9f+n50TJxQk8jGXpuDZGltnxTAxfvN8shava9SFBqnowwNwMAAABxCEwBAJCn1HC9Z//wNxn7XXO43ry74ofrzf73r8q+hmtl7SND5BuXnx41E1/O2fJN1c4crJOh75fXdxqbQlbJyPZlUpJoGbRCXFJUAQAAoJUjMAUAQJ757LOjsvLBBrno64/JN4ZUy9pHEw/Xu+P2i+QrZ+diuJ43kXxT3pKhAwAAAHZGYKq0TH+jTFG6+yl+7Et93dFG3lBfd4cOHdal1BVS+/pxTIX6uivU+j7+u7fkpM6/lpuqnpWXXnYfrpfT5zl8njQ3NUrz9kkSmyIqsq/KNxW6j7qfkUvKvh6/nHnmmZF1h8dNJqfPNQE/jqlQX3e0kTvq6476uqONvKG+7mgjd8Va35LQF8PIT7AAkKF2HR6QI0eOSceO7eTggfF6KwCvzr9wvezafVCvhT6oS0QGfP3LsvC/vy5fv6Sr3goAAAC0DgzlAwAgj9x1x8VG7yiLyjNVW/d3uWzQJrnmuqdk+zN/NbYBAAAArQGBKQAA8siob39FDn/4fVm54htS3v9UvVWMHFOPrm+UwUNrpP8lG2TF/Q3y6adH9a0AAABAYWIoH4CsYigfkD1Wb6nFv9gl634bnQBd6dLleJlc1Uv+dUpvOecr/iVABwAAANJFYApAVhGYAnLjL29/LPcue12WLX9dDhz4TG81HXdciYy5+hyZ9sO+8o3LzzDyUgEAAACFgMAUgKwiMAXk1mefHZXVa/cZvajqX3pfb4346gVdjADVuOt7GLP2AQAAAPmMwBSArCIwBbQML8P8fjDpPJn6L30Y5gcAAIC8RfJzAAAKkBquN7Diy/LIw1dI45tj5dZbLpTTTjtB3yrywQefy13zd0j3nmtlzLVbZNUje/UtxSu4eIyUtC+Tkqlb9ZaW4ddxAQAACgGBKQAACtxZpR3k9v8slz+/OVYe+FX0bH7HjjXLhsf+LN+7YZv805jf660ebZ5tBlQSLFM26/u1mK0yxTj2bKnRW1rOflk0KL4NSgatkKC+BwAAAFJHYAoAgFbihBPayPe/F5CFC74uQwafGZcE/Zln/6ZL2bGssmUDMzVTJ8gyXW5JZo+nwTKjTm+wq5srPduXycDF+/UGAAAApILAFAAArcCnnx6VX61skPJLH5PBQ6tl67Z3jTxUllNOaSdrHxmi11I0YI40NDVKs21pWFBu3lY3V27IZVDG1mtr5HK9rQWpoFTPmfXmStXKqDZobtomCweYN9XOHExwCgAAIA0EpgAAKGBv/eVjueW2F+UrPVbLpMnPysuvfKBvEWnTpkTGXtNdnn3628ZkBN8aWqpvyVxg2vpwcKp23ZbWOZwtuEJu0EGpigXbpHlJbGCvm0zfHgnS1c6cIYsY1wcAAJASAlMAABQY1RNKDcu79vqtRnLzeXe9Ku+//7m+VaRr1xPkP2ZfKPuD18rqVVfIZQO/HDesLxsC5/U2C3VBaTBL2Td8XqSH0sZxemO22fNHRfJX1dwzV2pVYcAceXBaN2Obk8C0hbrnVL3MuMc9wXk4GbpenHpaRSdMj81vZc+xlew2AACA/GcEpkrLdD/0FKW7n+LHvtTXHW3kDfV1d+jQYV1KXSG1rx/HVKivu9ZYX2u4Xv9LNsigK6tl3W/3y9GjkfF6/b/WRe5ffrm8tXes/NfPyuXss07UtzjLtL7BN/aYKwMC0tMsucromBM26FLqEh9XBXZ0/ihjyOI8GWFs3yob9NDBimuGSsAsJtBNRl2jhzYufzIcGIo/5pNG8vbw0EBNDQOMnbFv4NydZmHnYhkYl99qlYxUub2CKxLfptdSken5kI5iOaZCfd1RX3e0kTvq600h1Zc28qaQ61vS3NRoy0ABAJlp1+EBOXLkmHTs2M4YOgQgc2q43pJ798h9K16P6hmlqOF6/zymm0z7YV8ZWJHlnlEqv1PlKjNgs31STHDGFtBRuZeihrnZbvMq7jEcWPWRcVIdDiB5F84XZTtWzVSduyr2OaqgT1/VY6pcFu5aL9OTR6aS3j8qT1Xs7eHnFL09eh/b8w0fR7PX23bb5I2NsnS42ggAAJDfGMoHAEAeUsP1tj/zV7nmuqeM4Xp33u3PcL1EaqZagadyWfijNJOq+0wFfxyDUlF6Sy/nG1JnJE+PCXINnxIeBrjbqZuTsY8tCBeYJLdV6bK6zV5v22073iAROwAAKAwEpgAAyCPHjonMmPknOa/vOhk8tEYeXd8YN1xv5YpveB6ulxV1c6VnOIeRuZgz5CXqTWQmBY/MXudhcestlWWRHknjpNopKBUMRnoleRHoIRcYhQQBpoS6Sa9+ZslrMKlnbz1s0IF1W+2efcZfAACAfEdgCgCAPHL9+Kdl0eLXJPjmR3qLOVzvumvN2fVe/OPVcuP3A3LCCW30rT5x6v1TKJZP0EEpFVhLMCQwEJAKXfQkuFd2GIVy6VOIbQIAAOATAlMAAOSR2BxSykkntZWyspPk7LNPbNHhemFGUnDds8maGW/5BJmy2SwWrnqZMdEtUfgeeT2dTOIAAADwhMAUAAB5pObxb8mIq86WU05pp7eI/OMfX8jdC3ZIj/PWyneu3SJPb/urkYPKF8PnScMCc7jYssoxssgxaKOSn0cP/XNdYmalyymjt9dKmazKapii07FtQ/PWVLsPsQtWb9JD/7KYkwoAAKAIEJgCACCPtG9/nFQ//i35+9vj5MH7B8lF5afqW1T+qWZZ/9ifZci3auTCizbIfSvekE8+OaJvbTmBaQvDCbtn9J0tNcbWQjNElu6aYw7Xc+z9NURG60Titeu2uPSq2i+b1ukZ9KqGpTxbIAAAQDEjMAUAQB46/vjj5PvfO1eer62U57aPkuvH9pC2bSMf2zt2fiiT//UPcnb31fKT2c/L/sbD+paWoJKb6x5HskpGxvU4yv/k54bAJHkwSe+vET/Sgau6uXLD4sS9poKLZxT8DIUAAAB+ITAFAEAeUzmlKgacJr95aLDsD14rt95yoZx22gn6VpEPP2yS+f+9U87ttc4Y5rf16ZYa5jdEltryTQ1MErjJZ0l7f9kCV7UzB0vJoNh8VOaQRTOReuh1WrCwMJPBAwAA+IjAFAAABeKs0g5y+3+Wy5/fHCsP/OobUt4/fpjflcNq5KvlLTTMz5ZvSgVucpIMffPsSB6qylV64yoZaW2LCxalKnnvr8C09eHnaOSjso5rLIN1TykVlNomz03rZq4AAADAMwJTAAAUmBNOaCM3jA/IC3WV8odt35brru0eNcxv52stN8wv0uMoWTL0fBfd+ys2EbsKTjU3bQs/zyh6xkKCUgAAAOkpaW5q9GteHwCtULsOD8iRI8ekY8d2cvDAeL0VQK69/c4ncu+yPbL0vtflwIHP9FaTGg7YvdvJ8vj6b0rfvp30VgAAAMB/BKYAZBWBKcBfn312VFav3Sfz/3uHvLbroN5qOu20443Z/gAAAIB8wVA+AABaCZX0/E/PH5DHN/1Zdu/5h94aUXbOSboEAAAA5AcjMFVa5pQ0wV26+yl+7Et93dFG3lBfd4cOpZ/TppDa149jKtTXXbHUV+336adHZcX9DfK1ix+TwUNr5NH1jUYydEvfPp3kR9PPl9pnRuktpmJpI4X6uiuW+tJG3lBfd8VSX9rIG+rrjjZyV6z1ZSgfgKxiKB/Qct76y8ey5N49smz56/LBB5/rraY2bUpkzNVlMu2HfeXyy0438kwBAAAA+YbAFICsIjAF5JYarvfMs3+V//nlbln/WKMcPRr9MX7qqcfL5Kpe8q9TestXzj5RbwUAAADyE4EpAFlFYArIDTVc7zer98riX7wmr7z6od4a8bULuxi9o64f20O+9KU2eisAAACQ3whMAcgqAlNAdqnhev9vqTlc7/3344frfWd0mfzb/2G4HgAAAAoTgSkAWUVgCsicGq73h+f+Jot/sUt+u4HhegAAAGi9CEwByCoCU0Bm1DC9QVf+Tg4d+kJviWC4HgAAAFqb4/RfAACQB8bfuC0qKKWG5118UVf5/ebhUv+nq+WmG3sSlAIAAECrQWAKAIA88i+Te+mSSQ3re+HF92TsuK0y+9YX5M9vfaxvAQAAAAofQ/kAZBVD+YDMvd5wSB78dVDuW/G6HDjwmd5qOu64Ehlz9TlGwvNB3ziDhOcAAAAoaASmAGQVgSkgez777KisXrvPSIJe/9L7emtE6ZkdZOiVpVI1sacRpAIAAAAKDYEpAFlFYArIPjWcr7bu70aA6tH1jcb/mN2wb50lT/xumF4DAAAACgc5pgAAyHNquN7Aii/LIw9fIfuD18qtt1woJ5/cTt8qcuQIvzEBAACgMBGYAgCggJxV2kFu/89yWbjgUr1F5MKvdtYlAAAAoLAQmAIAoAC1a8dHOAAAAAqf8a22tGyAsZKqdPdT/NiX+rqjjbyhvu4OHTqsS6krpPb145gK9XVXTPVNVzG1EfV1Vyz1pY28ob7uiqW+tJE31NcdbeSuWOtL8nMAWUXyc6BlPPhQUG6c+IxRnnHz+XLP/MjQPgAAAKBQMA4AAAAAAAAAviAwBQAAAAAAAF8QmAIAAAAAAIAvCEwBAAAAAADAFwSmAAAAAAAA4AsCUwAAAAAAAPAFgSkAAAAAAAD4gsAUAAAAAAAAfEFgCgAAAAAAAL4gMAUAQIF58n/fludfeE+viTQ0HJJ1v90vzc16AwAAAFAgSpqbGvkaCyBr2nV4QI4cOSYdO7aTgwfG660Asqnf19bLa7sO6rWIpo8nSLt2JXoNAAAAyH/0mAIAAAAAAIAvjMBUadkAYyVV6e6n+LEv9XVHG3lDfd0dOnRYl1JXSO3rxzEV6uuumOqbrmJqI+rrrljqSxt5Q33dFUt9aSNvqK872shdsdaXoXwAsoqhfEDuMZQPAAAArQVD+QAAAAAAAOALAlMAABSYH0zqJf806it6TeTSS06TW356obRpozcAAAAABYLAFAAABebmf+sr13ynm14TuWzgl+Xnc8vluOMYxgcAAIDCQmAKAAAAAAAAviAwBQAAAAAAAF8QmAIAAAAAAIAvCEwBAAAAAADAFwSmAAAAAAAA4AsCUwAAAAAAAPAFgSkAAAAAAAD4gsAUAAAAAAAAfEFgCgAAAAAAAL4gMAUAAAAAAABfGIGp0rIBxkqq0t1P8WNf6uuONvKG+ro7dOiwLqWukNrXj2Mq1NddMdU3XcXURtTXXbHUlzbyhvq6K5b60kbeUF93tJG7Yq1vSXNTY7MuA0DG2nV4QI4cOSYdO7aTgwfG660Asu3Bh4Jy48RnjPKMm8+Xe+ZfapQBAACAQsJQPgAAAAAAAPiCwBQAAAAAAAB8QWAKAAAAAAAAviAwBQAAAAAAAF8QmAIAAAAAAIAvCEwBAAAAAADAFwSmAAAAAAAA4AsCUwAAAAAAAPAFgSkAAAAAAAD4gsAUgKz44otmOXz4C70m0twsxrraDiC7PvnkiHz2+VG9pv7/jkX9/wEAAACFoqS5qZGrRgAZu2fRTvnxT57XaxH3/nKgTPlBL70GIBv6fW29vLbroF6LaPp4grRrV6LXAAAAgPxHjykAAAAAAAD4wghMlZYNMFZSle5+ih/7Ul93tJE31De3Cql9/TimQn3dFVN901VMbUR93RVLfWkjb6ivu2KpL23kDfV1Rxu5K9b6MpQPQFYwlA9oOQzlAwAAQGvBUD4AAAAAAAD4gsAUgKz48pe/JOX9T5US3VmjTZsSY71r1xPMDQCypk/vTtKt7CS9Zv//oxM0AAAACgtD+QBkVbsOD8iRI8ekY8d2cvDAeL0VQLY9+FBQbpz4jFGecfP5cs/8S40yAAAAUEjoMQUAAAAAAABfEJgCAAAAAACALwhMAQAAAAAAwBcEpgAAAAAAAOALAlMAAAAAAADwBYEpAAAAAAAA+ILAFAAAAAAAAHxBYAoAAAAAAAC+KGluamzWZQBF7sc/eV4aGz/Sa+n57YZGaQ69q7RrVyKVo87RW9Nz3nkd5Y7bL9JrQOvx5t6P5N9nP6/X0tP454/lhRffM8o9A6fIVy/obJTT9S+Te8s3h5bqNQAAAKBlEJgCEHbhRY/Jqzs+0Gv+qxhwmjy3fZReA1oPFVC6pOJxvZYf7rv3MqmaeJ5eAwAAAFqGMZSvtGyAsZKqdPdT/NiX+rqjjbwplvoWGl5Td9TXGz/qW2h4Td1RX3e0kTvq6w31dUcbuaO+7mgjd9TXG/u+9JgCEEaPKaBl0GMKAAAAMBGYAhA29d9qZX+GOaayqXevTnLP/Ev1GtB6NAQPyc0/qtNr+WHa/+krw686W68BAAAALYPAFAAAAAAAAHxh5JgCAAAAAAAAWhqBKQAAAAAAAPiCwBQAAAAAAAB8QY4pAK569nlUPvvsqF7Lvs6d28ur9aP1GlC8Hnv8z/LDablNiv6vU3rJLT+9UK8BAAAA/iIwBcBVh44Pyqef5i4w1bXrCXLgne/qNaB4/Wb1Xhn3/W16LTd+MvMCueuOi/UaAAAA4C+G8gEAAAAAAMAXBKYAAAAAAADgC4byAXD183mvyJEjuXur6NChrcz6cT+9BhSvna99KI/+tlGv5cZlA78s3xxaqtcAAAAAfxGYAgAAAAAAgC8YygcAAAAAAABfEJgCAAAAAACAL4zAVGnZAGMlVenup/ixL/V1Rxt5Q31Fjh5tlrff+SThcvrZQx23N3sYPFxI7evHMRXq66411fejj444/j+pJdH/2gcffK73Tqw1tZEb6uuuWOpLG3lDfd0VS31pI2+orzvayF2x1pccUwDSoi58z+62Wq9598HfviedO7fXawC8mPtfL8v/nfuSXvPmO6PL5NE1V+o1AAAAID8xlA8AAAAAAAC+IDAFAAAAAAAAXxCYAgAAAAAAgC/IMQUgLZ9/fky2Pv2OXvPum0NLpW1bYuJAKt7c+5E0NPxDr3lz+ukdpP/Xuug1AAAAID8RmAIAAAAAAIAv6LYAAAAAAAAAXxCYAgAAAAAAgC8ITAEAAAAAAMAXBKYAAAAAAADgCwJTAAAAAAAA8AWBKQAAAAAAAPiCwBQAAAAAAAB8YQSmSssGGCupSnc/xY99qa872sgb6uuuWOpLG3lDfd3RRu6orzvq64428ob6uiuW+tJG3lBfd7SRu2Ktb0lzU2OzLgMAAAAAAAAthqF8AAAAAAAA8AWBKQAAAAAAAPiCwBQAAAAAAAB8QWAKAAAAAAAAviAwBQAAAAAAAF8QmAIAAAAAAIAvCEwBAAAAAADAFwSmAAAAAAAA4AsCUwAAAAAAAPAFgSkAAAAAAAD4gsAUAAAAAAAAfEFgCgAAAAAAAL4gMAUAAAAAAABfGIGp0rIBxkqq0t1P8WNf6uuONvKG+rorlvrSRt5QX3e0kTvq6476uqONvKG+7oqlvrSRN9TXHW3krljrW9Lc1NisywAAAAAAAECLYSgfAAAAAAAAfEFgCgAAAAAAAL4gMAUAAAAAAABfEJgCAAAAAACALwhMAQAAAAAAwBcEpgAAAAAAAOALAlMAAAAAAADwBYEpAAAAAAAA+ILAFAAAAAAAAHxBYAoAAAAAAAA+EPn/ATYNY4eKLAevAAAAAElFTkSuQmCC;" vertex="1" parent="1">
          <mxGeometry x="1141" y="175" width="1017.1" height="500" as="geometry" />
        </mxCell>
        <mxCell id="egnDsmeE3gZafAVFNCzx-2" value="Swept Values for Resistor R1" style="shape=callout;whiteSpace=wrap;html=1;perimeter=calloutPerimeter;position2=0.75;fillColor=#f8cecc;strokeColor=#b85450;fontStyle=1;fontSize=14;base=40;" vertex="1" parent="1">
          <mxGeometry x="1680" y="250" width="220" height="80" as="geometry" />
        </mxCell>
        <mxCell id="egnDsmeE3gZafAVFNCzx-3" value="Resulting Voltage Divider Output Voltage" style="shape=callout;whiteSpace=wrap;html=1;perimeter=calloutPerimeter;position2=0.45;fillColor=#f8cecc;strokeColor=#b85450;fontStyle=1;fontSize=14;base=40;" vertex="1" parent="1">
          <mxGeometry x="1920" y="250" width="220" height="80" as="geometry" />
        </mxCell>
        <mxCell id="egnDsmeE3gZafAVFNCzx-4" value="" style="rounded=0;whiteSpace=wrap;html=1;strokeWidth=5;fillColor=none;strokeColor=#FF0000;" vertex="1" parent="1">
          <mxGeometry x="1160" y="300" width="110" height="30" as="geometry" />
        </mxCell>
        <mxCell id="egnDsmeE3gZafAVFNCzx-6" style="edgeStyle=orthogonalEdgeStyle;rounded=0;orthogonalLoop=1;jettySize=auto;html=1;exitX=0;exitY=0.5;exitDx=0;exitDy=0;entryX=1;entryY=0.5;entryDx=0;entryDy=0;strokeWidth=5;strokeColor=light-dark(#ff0000, #ededed);" edge="1" parent="1" source="egnDsmeE3gZafAVFNCzx-5" target="egnDsmeE3gZafAVFNCzx-4">
          <mxGeometry relative="1" as="geometry">
            <Array as="points">
              <mxPoint x="1340" y="260" />
              <mxPoint x="1340" y="315" />
            </Array>
          </mxGeometry>
        </mxCell>
        <mxCell id="egnDsmeE3gZafAVFNCzx-7" value="referenced in" style="edgeLabel;html=1;align=center;verticalAlign=middle;resizable=0;points=[];fontSize=13;" vertex="1" connectable="0" parent="egnDsmeE3gZafAVFNCzx-6">
          <mxGeometry x="0.0391" y="-2" relative="1" as="geometry">
            <mxPoint x="22" y="-6" as="offset" />
          </mxGeometry>
        </mxCell>
        <mxCell id="egnDsmeE3gZafAVFNCzx-5" value="" style="rounded=0;whiteSpace=wrap;html=1;strokeWidth=5;fillColor=none;strokeColor=#FF0000;" vertex="1" parent="1">
          <mxGeometry x="1380" y="240" width="60" height="40" as="geometry" />
        </mxCell>
      </root>
    </mxGraphModel>
  </diagram>
</mxfile>
